<svg xmlns="http://www.w3.org/2000/svg" viewBox="0 0 511.15 510.65"><defs><style>.cls-1{fill:#0c0908;}.cls-2{fill:#ea5d6a;}.cls-3{fill:#689ed4;}.cls-4{fill:#fbf4d1;}.cls-5{fill:#fce34a;}.cls-6{fill:#f7f7f8;}</style></defs><g id="Слой_2" data-name="Слой 2"><g id="Слой_1-2" data-name="Слой 1"><path class="cls-1" d="M304,510.63q-53.71,0-107.41,0c-2.37,0-4.64-.19-6.61-1.68-3-2.25-4.11-5.83-3-9.84,1.07-3.83,2.09-7.69,3.43-11.43.75-2.09,0-2.2-1.71-2.19-8.57,0-17.15,0-25.72,0q-62.94,0-125.89,0c-14.82,0-25.46-6.95-31.74-20.38a26.56,26.56,0,0,1-2.64-11.33c0-28.64-.12-57.28.16-85.91C3,359.05,5,350.41,7.46,341.92c4.33-14.92,9-29.75,8.2-45.63a125.93,125.93,0,0,0-4.21-25.52c-2.36-9-4.49-18-6.72-27.06-1.11-4.52-2.23-9-3.29-13.55a56.07,56.07,0,0,1,0-25.22,56.9,56.9,0,0,1,18.37-31.18A57.69,57.69,0,0,1,59.49,159c4.51,0,4.45,0,6.09-4.16C69.75,144.3,74,133.77,78.2,123.23c1.18-2.94,3.13-5.21,6.3-5.81,1.69-.33,1.9-1,1.89-2.46q-.06-15,0-30c0-6.4,3.26-9.65,9.65-9.66q24,0,48,0c6.07,0,9.41,3.32,9.42,9.38q0,15.12,0,30.22c0,1.42.18,2.14,1.88,2.48,4.56.92,5.93,4.85,7.42,8.58,4.15,10.39,8.38,20.74,12.41,31.17.64,1.65,1.5,1.88,3,1.87a62.76,62.76,0,0,1,13.67.9A53.41,53.41,0,0,1,202,162.8c2,.86,2.74.51,2.93-1.81.9-11.36,2.1-22.7,2.91-34.07.86-12,4.19-22.83,13.14-31.37a41.07,41.07,0,0,1,28-11.81c3.75-.11,7.5-.11,11.24,0,1.56,0,2-.5,2-2-.07-7.41-.05-14.82,0-22.23,0-5.88,3.4-9.23,9.29-9.27,1.75,0,3.51-.11,5.24,0s2.28-.43,2.25-2.2c-.1-6.33,0-12.66,0-19,0-6.66,0-13.32,0-20,0-5.61,3.43-9.06,9-9.07H387c5.71,0,9.09,3.43,9.1,9.2,0,12.74.08,25.48-.05,38.22,0,2.38.72,3,2.94,2.82a41.89,41.89,0,0,1,5.49,0,8.31,8.31,0,0,1,8.35,8.43c.08,7.58.06,15.16,0,22.73,0,1.58.22,2.25,2.09,2.43,27.08,2.59,47.4,15.68,60.77,39.44,6.31,11.21,8.37,23.47,9.33,36.09,1.13,14.68,2.56,29.34,3.83,44,1.2,13.76,2.34,27.53,3.54,41.29,1.22,14,2.49,28,3.73,42,.84,9.61,1.65,19.23,2.49,28.85q1.91,21.75,3.83,43.51c.84,9.62,1.63,19.24,2.48,28.85q1.86,21.27,3.76,42.52c.81,9.29,1.83,18.56,2.38,27.86.72,12-5.64,21.62-16.75,25.84a26.54,26.54,0,0,1-9.56,1.45q-32.36-.07-64.69,0c-2.94,0-3,0-2.14,2.88,1,3.43,1.94,6.87,3,10.27,2.06,6.61-1.79,11.94-8.78,11.94Q358.1,510.65,304,510.63Zm27.79-410h-5c-25.3,0-50.61,0-75.92,0-11.77,0-21.38,7.23-24.43,18.33-1.44,5.22-1.49,10.67-1.93,16-.49,6.13-1.17,12.25-1.7,18.38-.56,6.55-1,13.1-1.57,19.65a3.4,3.4,0,0,0,1.08,2.91,57.63,57.63,0,0,1,16.3,29.63,54.58,54.58,0,0,1-.06,24.49c-1.43,6-3,12.06-4.49,18.09-1.91,7.74-3.65,15.52-5.74,23.2a102.81,102.81,0,0,0-3.79,32.3c.08,1.61.32,2.07,2,1.21a31.67,31.67,0,0,1,14.59-3.59q69.3,0,138.6,0a16.66,16.66,0,0,1,16.4,16.36c.07,5.49-.23,11,.07,16.48.51,9.57-8,17.71-17.59,17.62-26.8-.25-53.61-.09-80.41-.09-12.49,0-25,.06-37.47-.06-2.27,0-2.82.67-2.72,2.82a89.33,89.33,0,0,1,0,10.73c-.18,2.61.7,3.13,3.18,3.13q70.07-.12,140.11-.06c1.25,0,2.5,0,3.74,0a8.24,8.24,0,0,1,7.83,7.9q.12,17.22,0,34.46c0,3.23-1.8,5.53-4.67,7.1-2.21,1.21-4.53.89-6.83.88-1.72,0-2.07.35-1.55,2.15,2.39,8.28,4.58,16.62,6.85,24.94,1.93,7,3.92,14.06,5.8,21.12.4,1.49,1.14,1.89,2.62,1.89,23.39-.05,46.78,0,70.18-.05,5.42,0,9.33-3.95,9.09-9.35-.23-5.23-.78-10.45-1.24-15.67q-1.92-21.87-3.88-43.75-1.46-16.51-2.89-33.05-2.16-24.48-4.31-49-2.66-30.58-5.25-61.16c-.88-10.28-1.62-20.56-2.52-30.84-1.22-13.91-2.57-27.82-3.79-41.74-1-11.18-1.63-22.39-3.1-33.53a55.58,55.58,0,0,0-15.2-31.51c-12-12.66-26.94-18.43-44.21-18.47Q369.9,100.54,331.81,100.59ZM114,468.74h76.43c5.47,0,5.4,0,6.8-5.3q5.35-20.08,10.83-40.14c1.29-4.73,1.35-4.72-3.44-4.77-6-.06-9.33-3.44-9.34-9.52,0-10.15.22-20.32-.09-30.46-.2-6.75,4.29-10.91,10.19-10.22,2,.24,2.49-.6,2.47-2.52-.08-9.91,0-19.82,0-29.72a38.83,38.83,0,0,1,.8-8.17c.53-2.47,1.82-4.8,1.12-7.54a73.89,73.89,0,0,1-2.07-16.3c-.23-9.17.08-18.27,2.06-27.3,1.36-6.17,2.95-12.27,4.44-18.4,2.21-9,4.42-18.06,6.81-27,2.33-8.79,2.93-17.59.12-26.32a41.6,41.6,0,0,0-39.81-29.17c-40.87-.1-81.75,0-122.63,0a41.79,41.79,0,0,0-41.52,45.9c.53,5.25,2,10.25,3.29,15.33,3,12,5.89,24,8.92,36a113.56,113.56,0,0,1,3.26,28.42c-.09,13.43-3.24,26.35-7.23,39.07-3.55,11.32-5.95,22.81-5.92,34.75.06,25.22.17,50.45-.06,75.68a17.69,17.69,0,0,0,17.93,17.86C62.84,468.56,88.4,468.74,114,468.74Zm189.87-50.16q-37.33,0-74.67,0c-1.63,0-2.53.3-3,2.06-1.09,4.43-2.44,8.79-3.63,13.2-2.6,9.61-5.13,19.23-7.75,28.84s-5.28,19.19-7.94,28.78c-.43,1.55-.35,2.43,1.72,2.42,10.58-.09,21.15-.07,31.72,0,1.5,0,1.93-.47,2.1-1.94.92-8.1,2-16.18,3-24.27a8.36,8.36,0,0,1,12-6.46c3.36,1.62,5.15,4.33,4.78,8q-1.14,11-2.78,22c-.33,2.21.16,2.69,2.29,2.68,10.57-.1,21.14-.08,31.72,0,1.72,0,2.27-.46,2.25-2.22-.1-7.33-.05-14.65,0-22a9.24,9.24,0,0,1,.46-3.68c1.72-4.08,5.45-6.27,9.53-5.51a8.55,8.55,0,0,1,6.82,8.63c.05,7.49.06,15,0,22.47,0,1.67.32,2.31,2.16,2.3q16-.13,32,0c2.12,0,2.4-.64,2.12-2.59-1.06-7.32-2.09-14.66-2.77-22a8.08,8.08,0,0,1,7.51-8.89,8.43,8.43,0,0,1,9.28,7.7c1,8,2.05,16,3,24,.16,1.4.66,1.77,2,1.76,10.57-.05,21.14-.07,31.71,0,1.92,0,2.3-.61,1.82-2.32-2.23-8.08-4.41-16.16-6.62-24.24q-3.44-12.61-6.89-25.21c-1.9-7-3.84-13.91-5.62-20.9-.53-2-1.47-2.64-3.58-2.63C353.62,418.61,328.73,418.58,303.83,418.58Zm4.95-100.38c-22.47,0-44.93,0-67.4,0a16.59,16.59,0,0,0-16.73,16.56c-.08,10.4,0,20.8-.06,31.2,0,1.73.46,2.32,2.23,2.27,4-.12,8-.13,12,0,1.85.06,2.43-.46,2.4-2.36-.11-7.07.2-14.16-.11-21.22-.27-6.05,4-10.09,9.93-10,22.3.22,44.6.09,66.9.09,19.56,0,39.11,0,58.67,0,2.25,0,2.83-.62,2.73-2.78-.18-3.74-.17-7.49,0-11.23.09-2.09-.56-2.63-2.64-2.62C354.05,318.22,331.42,318.19,308.78,318.2Zm-4.84,66.91q-44.7,0-89.4,0c-1.89,0-2.65.37-2.56,2.44a110.89,110.89,0,0,1,0,11.24c-.13,2.39.57,3,3,3q77.79-.12,155.57-.06c7.66,0,15.32-.05,23,0,1.88,0,2.66-.36,2.56-2.45a108.05,108.05,0,0,1,0-11.24c.14-2.42-.61-3-3-3Q348.51,385.18,303.94,385.11ZM337.55,67c-18.65,0-37.3,0-55.94,0-2.25,0-2.85.63-2.75,2.8a107.86,107.86,0,0,1,0,11.23c-.14,2.39.71,2.86,2.92,2.85,21.56-.08,43.13,0,64.69,0,15.73,0,31.47,0,47.2,0,2,0,2.57-.56,2.5-2.53-.15-3.9-.16-7.82,0-11.73.09-2.13-.64-2.62-2.68-2.61C374.85,67,356.2,67,337.55,67ZM120,159c11.73,0,23.46,0,35.2,0,1.61,0,2.5,0,1.58-2.12-2.44-5.71-4.55-11.56-6.89-17.31-2.27-5.59-2.33-5.57-8.43-5.57h-3.74q-21.6,0-43.18,0c-1.53,0-2.47.2-3.12,2-2.49,6.85-5.29,13.59-7.93,20.38-1,2.49-.85,2.63,1.82,2.63Zm0-66.8c-4.82,0-9.64,0-14.46,0-1.62,0-2.37.26-2.34,2.14.11,6.9.09,13.8,0,20.7,0,1.61.43,2.14,2.09,2.13q14.6-.11,29.18,0c1.71,0,2.1-.56,2.08-2.14q-.1-10.35,0-20.7c0-1.61-.43-2.17-2.09-2.14C129.66,92.26,124.83,92.2,120,92.2ZM295.64,33.36c0,4.91.05,9.82,0,14.73,0,1.53.28,2.26,2,2.22,4.33-.11,8.66-.09,13,0,1.44,0,1.84-.51,1.83-1.9q-.06-14.85,0-29.71c0-1.56-.54-2-2-2-4.25.08-8.49.09-12.74,0-1.65,0-2.13.53-2.1,2.17C295.7,23.7,295.64,28.53,295.64,33.36Zm50.28,0c0-4.81-.05-9.63,0-14.45,0-1.54-.31-2.25-2-2.21-4.24.11-8.47.1-12.71,0-1.62,0-2.13.48-2.12,2.14.08,9.8.06,19.6,0,29.4,0,1.44.32,2.09,1.92,2.06q6.48-.14,13,0c1.53,0,2-.48,2-2C345.87,43.33,345.92,38.35,345.92,33.36Zm16.68.14c0,4.91,0,9.82,0,14.73,0,1.44.31,2.1,1.92,2.07q6.5-.13,13,0c1.58,0,2-.57,2-2q-.07-14.73,0-29.46c0-1.43-.29-2.12-1.91-2.09-4.33.09-8.66.08-13,0-1.58,0-2,.58-2,2.06C362.64,23.68,362.6,28.59,362.6,33.5Z"/><path class="cls-2" d="M331.81,100.59q38.08,0,76.17,0c17.27,0,32.23,5.81,44.21,18.47a55.58,55.58,0,0,1,15.2,31.51c1.47,11.14,2.11,22.35,3.1,33.53,1.22,13.92,2.57,27.83,3.79,41.74.9,10.28,1.64,20.56,2.52,30.84q2.59,30.58,5.25,61.16,2.13,24.48,4.31,49,1.44,16.53,2.89,33.05,1.94,21.88,3.88,43.75c.46,5.22,1,10.44,1.24,15.67.24,5.4-3.67,9.34-9.09,9.35-23.4,0-46.79,0-70.18.05-1.48,0-2.22-.4-2.62-1.89-1.88-7.06-3.87-14.08-5.8-21.12-2.27-8.32-4.46-16.66-6.85-24.94-.52-1.8-.17-2.16,1.55-2.15,2.3,0,4.62.33,6.83-.88,2.87-1.57,4.65-3.87,4.67-7.1q.14-17.24,0-34.46a8.24,8.24,0,0,0-7.83-7.9c-1.24-.05-2.49,0-3.74,0q-70.05,0-140.11.06c-2.48,0-3.36-.52-3.18-3.13a89.33,89.33,0,0,0,0-10.73c-.1-2.15.45-2.84,2.72-2.82,12.49.12,25,.06,37.47.06,26.8,0,53.61-.16,80.41.09,9.57.09,18.1-8.05,17.59-17.62-.3-5.48,0-11-.07-16.48a16.66,16.66,0,0,0-16.4-16.36q-69.3-.06-138.6,0a31.67,31.67,0,0,0-14.59,3.59c-1.69.86-1.93.4-2-1.21a102.81,102.81,0,0,1,3.79-32.3c2.09-7.68,3.83-15.46,5.74-23.2,1.49-6,3.06-12.05,4.49-18.09a54.58,54.58,0,0,0,.06-24.49,57.63,57.63,0,0,0-16.3-29.63,3.4,3.4,0,0,1-1.08-2.91c.53-6.55,1-13.1,1.57-19.65.53-6.13,1.21-12.25,1.7-18.38.44-5.38.49-10.83,1.93-16,3-11.1,12.66-18.3,24.43-18.33,25.31-.06,50.62,0,75.92,0ZM418.52,301.5a37.46,37.46,0,0,0,11.77-2c17.86-5.76,30-22.6,29.09-41.27-.61-12.45-1.84-24.87-2.86-37.3-.86-10.35-1.85-20.7-2.71-31-.88-10.69-1.58-21.4-2.56-32.08a50.81,50.81,0,0,0-2.54-12.66,42.14,42.14,0,0,0-81.81,16.56c.5,7.55,1.28,15.08,1.9,22.62.84,10.28,1.62,20.56,2.47,30.84.94,11.35,1.77,22.71,2.92,34,.76,7.41.71,14.92,2.81,22.2C382.11,289.1,398.87,301.72,418.52,301.5Z"/><path class="cls-3" d="M114,468.74c-25.56,0-51.12-.18-76.68.09A17.69,17.69,0,0,1,19.35,451c.23-25.23.12-50.46.06-75.68,0-11.94,2.37-23.43,5.92-34.75,4-12.72,7.14-25.64,7.23-39.07a113.56,113.56,0,0,0-3.26-28.42c-3-12-6-24-8.92-36C19.13,232,17.62,227,17.09,221.71a41.79,41.79,0,0,1,41.52-45.9c40.88,0,81.76-.06,122.63,0A41.6,41.6,0,0,1,221.05,205c2.81,8.73,2.21,17.53-.12,26.32-2.39,9-4.6,18-6.81,27-1.49,6.13-3.08,12.23-4.44,18.4-2,9-2.29,18.13-2.06,27.3a73.89,73.89,0,0,0,2.07,16.3c.7,2.74-.59,5.07-1.12,7.54a38.83,38.83,0,0,0-.8,8.17c0,9.9,0,19.81,0,29.72,0,1.92-.42,2.76-2.47,2.52-5.9-.69-10.39,3.47-10.19,10.22.31,10.14.07,20.31.09,30.46,0,6.08,3.35,9.46,9.34,9.52,4.79.05,4.73,0,3.44,4.77q-5.46,20.06-10.83,40.14c-1.4,5.28-1.33,5.3-6.8,5.3ZM61.32,326.36h0c0,19.72-.07,39.45,0,59.17a25,25,0,0,0,24.49,24.58c22.72.1,45.44,0,68.16,0a21.35,21.35,0,0,0,8-1.6c10.61-4.29,16.41-12.9,16.46-24.34,0-10.9,0-21.8,0-32.7,0-27.8,0-55.59,0-83.39a25,25,0,0,0-25.27-25.31c-22.22-.06-44.44,0-66.66,0a22.88,22.88,0,0,0-8.78,1.56c-10.69,4.37-16.41,13-16.42,24.6Q61.3,297.65,61.32,326.36Z"/><path class="cls-4" d="M303.83,418.58c24.9,0,49.79,0,74.68-.05,2.11,0,3.05.59,3.58,2.63,1.78,7,3.72,13.94,5.62,20.9q3.44,12.6,6.89,25.21c2.21,8.08,4.39,16.16,6.62,24.24.48,1.71.1,2.34-1.82,2.32-10.57-.08-21.14-.06-31.71,0-1.35,0-1.85-.36-2-1.76-.94-8-2-16-3-24a8.43,8.43,0,0,0-9.28-7.7,8.08,8.08,0,0,0-7.51,8.89c.68,7.36,1.71,14.7,2.77,22,.28,1.95,0,2.6-2.12,2.59q-16-.15-32,0c-1.84,0-2.18-.63-2.16-2.3.07-7.49.06-15,0-22.47a8.55,8.55,0,0,0-6.82-8.63c-4.08-.76-7.81,1.43-9.53,5.51a9.24,9.24,0,0,0-.46,3.68c0,7.33-.07,14.65,0,22,0,1.76-.53,2.23-2.25,2.22-10.58-.07-21.15-.09-31.72,0-2.13,0-2.62-.47-2.29-2.68q1.64-11,2.78-22c.37-3.66-1.42-6.37-4.78-8a8.36,8.36,0,0,0-12,6.46c-1,8.09-2.09,16.17-3,24.27-.17,1.47-.6,1.94-2.1,1.94-10.57-.06-21.14-.08-31.72,0-2.07,0-2.15-.87-1.72-2.42,2.66-9.59,5.33-19.18,7.94-28.78s5.15-19.23,7.75-28.84c1.19-4.41,2.54-8.77,3.63-13.2.44-1.76,1.34-2.06,3-2.06Q266.5,418.61,303.83,418.58Z"/><path class="cls-5" d="M308.78,318.2c22.64,0,45.27,0,67.9-.05,2.08,0,2.73.53,2.64,2.62-.17,3.74-.18,7.49,0,11.23.1,2.16-.48,2.8-2.73,2.78-19.56-.09-39.11,0-58.67,0-22.3,0-44.6.13-66.9-.09-5.91-.06-10.2,4-9.93,10,.31,7.06,0,14.15.11,21.22,0,1.9-.55,2.42-2.4,2.36-4-.13-8-.12-12,0-1.77.05-2.25-.54-2.23-2.27.07-10.4,0-20.8.06-31.2a16.59,16.59,0,0,1,16.73-16.56C263.85,318.16,286.31,318.2,308.78,318.2Z"/><path class="cls-5" d="M303.94,385.11q44.57,0,89.15-.05c2.4,0,3.15.59,3,3a108.05,108.05,0,0,0,0,11.24c.1,2.09-.68,2.47-2.56,2.45-7.66-.09-15.32,0-23,0q-77.79,0-155.57.06c-2.43,0-3.13-.64-3-3a110.89,110.89,0,0,0,0-11.24c-.09-2.07.67-2.44,2.56-2.44Q259.24,385.16,303.94,385.11Z"/><path class="cls-3" d="M337.55,67c18.65,0,37.3,0,55.94,0,2,0,2.77.48,2.68,2.61-.16,3.91-.15,7.83,0,11.73.07,2-.51,2.54-2.5,2.53-15.73-.08-31.47,0-47.2,0-21.56,0-43.13,0-64.69,0-2.21,0-3.06-.46-2.92-2.85a107.86,107.86,0,0,0,0-11.23c-.1-2.17.5-2.81,2.75-2.8C300.25,67,318.9,67,337.55,67Z"/><path class="cls-5" d="M120,159H85.3c-2.67,0-2.79-.14-1.82-2.63,2.64-6.79,5.44-13.53,7.93-20.38.65-1.78,1.59-2,3.12-2q21.59,0,43.18,0h3.74c6.1,0,6.16,0,8.43,5.57,2.34,5.75,4.45,11.6,6.89,17.31.92,2.14,0,2.12-1.58,2.12C143.45,159,131.72,159,120,159Z"/><path class="cls-5" d="M120,92.2c4.82,0,9.65.06,14.47,0,1.66,0,2.11.53,2.09,2.14q-.1,10.35,0,20.7c0,1.58-.37,2.16-2.08,2.14q-14.59-.12-29.18,0c-1.66,0-2.11-.52-2.09-2.13.08-6.9.1-13.8,0-20.7,0-1.88.72-2.17,2.34-2.14C110.37,92.25,115.19,92.2,120,92.2Z"/><path class="cls-3" d="M295.64,33.36c0-4.83.06-9.66,0-14.48,0-1.64.45-2.2,2.1-2.17,4.25.09,8.49.08,12.74,0,1.49,0,2,.42,2,2q-.09,14.85,0,29.71c0,1.39-.39,1.92-1.83,1.9-4.33-.08-8.66-.1-13,0-1.75,0-2.05-.69-2-2.22C295.69,43.18,295.64,38.27,295.64,33.36Z"/><path class="cls-3" d="M345.92,33.36c0,5-.05,10,0,15,0,1.52-.45,2-2,2q-6.48-.14-13,0c-1.6,0-1.92-.62-1.92-2.06.05-9.8.07-19.6,0-29.4,0-1.66.5-2.17,2.12-2.14,4.24.09,8.47.1,12.71,0,1.73,0,2.07.67,2,2.21C345.87,23.73,345.92,28.55,345.92,33.36Z"/><path class="cls-3" d="M362.6,33.5c0-4.91,0-9.82,0-14.73,0-1.48.38-2.09,2-2.06,4.32.08,8.65.09,13,0,1.62,0,1.92.66,1.91,2.09q-.06,14.73,0,29.46c0,1.47-.38,2.07-2,2q-6.48-.13-13,0c-1.61,0-1.94-.63-1.92-2.07C362.64,43.32,362.6,38.41,362.6,33.5Z"/><path class="cls-1" d="M418.52,301.5c-19.65.22-36.41-12.4-41.52-30.11-2.1-7.28-2.05-14.79-2.81-22.2-1.15-11.33-2-22.69-2.92-34-.85-10.28-1.63-20.56-2.47-30.84-.62-7.54-1.4-15.07-1.9-22.62a42.14,42.14,0,0,1,81.81-16.56,50.81,50.81,0,0,1,2.54,12.66c1,10.68,1.68,21.39,2.56,32.08.86,10.35,1.85,20.7,2.71,31,1,12.43,2.25,24.85,2.86,37.3.91,18.67-11.23,35.51-29.09,41.27A37.46,37.46,0,0,1,418.52,301.5Zm24.79-44.29c-.51-6.22-1-12.44-1.54-18.65-1.24-14-2.55-28-3.78-42-1.16-13.25-2.23-26.52-3.42-39.78a21.94,21.94,0,0,0-1.27-5.83c-4.4-11.61-13.92-17.69-26.37-17-9.31.55-18.74,8.36-21.38,17.32-1.7,5.79-1,11.55-.5,17.33,1.19,14.67,2.5,29.34,3.72,44,1.18,14.26,2.2,28.53,3.51,42.78.35,3.78.47,7.59,1.56,11.33,4,13.8,20,21.45,33.35,16.2A25.34,25.34,0,0,0,443.31,257.21Z"/><path class="cls-1" d="M61.32,326.36q0-28.71,0-57.42c0-11.63,5.73-20.23,16.42-24.6a22.88,22.88,0,0,1,8.78-1.56c22.22,0,44.44,0,66.66,0a25,25,0,0,1,25.27,25.31c.08,27.8,0,55.59,0,83.39,0,10.9,0,21.8,0,32.7,0,11.44-5.85,20.05-16.46,24.34a21.35,21.35,0,0,1-8,1.6c-22.72,0-45.44.06-68.16,0a25,25,0,0,1-24.49-24.58c-.1-19.72,0-39.45,0-59.17Zm16.76,0c0,19,.15,38-.09,56.94-.08,6.47,4.15,10.24,10.06,10.18q31.85-.3,63.69,0c6.22.06,10.07-4.13,10-9.95-.15-38-.07-76.09-.08-114.14,0-6.68-3.22-9.84-10-9.85H88c-6.75,0-10,3.18-10,9.87Q78.07,297.86,78.08,326.34Z"/><path class="cls-6" d="M443.31,257.21A25.34,25.34,0,0,1,427.19,283c-13.38,5.25-29.33-2.4-33.35-16.2-1.09-3.74-1.21-7.55-1.56-11.33-1.31-14.25-2.33-28.52-3.51-42.78-1.22-14.67-2.53-29.34-3.72-44-.47-5.78-1.2-11.54.5-17.33,2.64-9,12.07-16.77,21.38-17.32,12.45-.73,22,5.35,26.37,17a21.94,21.94,0,0,1,1.27,5.83c1.19,13.26,2.26,26.53,3.42,39.78,1.23,14,2.54,28,3.78,42C442.32,244.77,442.8,251,443.31,257.21Z"/><path class="cls-6" d="M78.08,326.34q0-28.47,0-56.95c0-6.69,3.2-9.86,10-9.87h63.69c6.77,0,10,3.17,10,9.85,0,38.05-.07,76.1.08,114.14,0,5.82-3.83,10-10,9.95q-31.85-.31-63.69,0c-5.91.06-10.14-3.71-10.06-10.18C78.23,364.3,78.08,345.32,78.08,326.34Z"/></g></g></svg>