<svg xmlns="http://www.w3.org/2000/svg" viewBox="0 0 681.82 682.96"><defs><style>.cls-1{fill:#0d0a07;}.cls-2{fill:#e84539;}.cls-3{fill:sienna;}.cls-4{fill:#f9ddb1;}.cls-5{fill:#369fd8;}</style></defs><g id="Слой_2" data-name="Слой 2"><g id="Слой_1-2" data-name="Слой 1"><path class="cls-1" d="M343.27,139.35l.06,1.57a34.18,34.18,0,0,1-2,6.41c-.89.17-1.4.58-1.06,1.58a6.66,6.66,0,0,0-2.23,1.78c-1.44-.07-2.77.08-3.51,1.56l-5.16,0c-.14-1-.75-1-1.48-.63l-2.09-.82a2.78,2.78,0,0,0-2.91-2.19l-2-1.41a4.1,4.1,0,0,0-3.51-2.63l-.57-.3c.07-.66-.22-.94-.88-.79l-2.55-1.77c-.34-1.56-1.58-2-2.91-2.29l-11.12-8.18c-.09-.89-.46-1.43-1.47-1.18l-.56-.29c-.05-.93-.42-1.46-1.45-1.17l-.59-.3c.08-.68-.19-1-.87-.78l-.52-.32a4.2,4.2,0,0,0-3.48-2.67l-.58-.27c.05-.66-.21-1-.89-.79l-1.14-.68a3.75,3.75,0,0,0-3.45-2.6,4.08,4.08,0,0,0-2-1.44c.09-.7-.21-1-.89-.81l-3.63-2.67c0-.72-.29-1-1-.64-.55-1-1.75-1.15-2.47-1.92,0-.7-.37-.9-1-.62l-1.05-.83c0-.73-.28-1-1-.63l-1-.89c-.12-.85-.47-1.42-1.47-1.16l-.59-.29c0-1-.36-1.52-1.44-1.14l-.58-.35c.12-.7-.16-1-.86-.79l-.53-.3c-.15-.83-.49-1.41-1.49-1.17l-.58-.27c0-1-.38-1.5-1.45-1.14l-.58-.33c.12-.69-.17-1-.85-.83l-.54-.27c0-.6-.32-.9-.94-.75l-.16-.16A2.27,2.27,0,0,0,256,99.1a9.79,9.79,0,0,0-2.8-2.15c0-.94-.46-1.07-1.22-.78l-1.07-.85c-.87-1.24-1.28-1.25-2.29-.06l-2,1.41c-1.05-.37-1.36.25-1.49,1.11l-1,.9c-4,1.14-6.88,4-9.72,6.84l-.48.26a8.11,8.11,0,0,0-3.94,2.88l-.1.1a1,1,0,0,0-1,.8l-.46.25a12,12,0,0,0-2,1c-5.19,3.81-10.37,7.62-15.51,11.49-3.87,2.91-8,5.53-11.48,8.9l-.1.08a14.72,14.72,0,0,0-5.38,4l-.08.07c-3.25,1.52-5.88,4-8.72,6.06-4.31,3.19-8.92,6-12.73,9.82l-.09.09a18.77,18.77,0,0,0-2.63,1.38q-8.31,6.13-16.54,12.37c-2,1.48-4.27,2.56-5.73,4.67l-.11.06a10.24,10.24,0,0,0-5,3.79l-.48.24a8.19,8.19,0,0,0-3.94,2.89l-.09.09a1,1,0,0,0-1,.82l-.46.23c-4.33,2.29-8,5.56-11.9,8.42-2.79,2-5.87,3.68-8.09,6.41l-.1.1a37.79,37.79,0,0,0-8.86,6.46l-.1.07c-4.76,2.7-9,6.22-13.32,9.47-2.76,2.05-5.88,3.69-8.11,6.41l-.1.09a12.92,12.92,0,0,0-5.37,4l-.09.08a13.15,13.15,0,0,0-2,1Q70.58,226,62.81,231.85c-2.5,1.87-5.32,3.36-7.34,5.84l-.09.06a9.86,9.86,0,0,0-5,3.78l-.48.24a12.93,12.93,0,0,0-2,1q-10.55,7.74-21,15.55c-1.07.8-3.15,1.39-2.63,2.86s2.55.61,3.89.61q95.1.06,190.21,0c5.72,0,10.51,1.59,13.09,7.23a1.09,1.09,0,0,0,.92.75c.05.68.11,1.35.16,2a1.11,1.11,0,0,0,0,1.66,12.79,12.79,0,0,1-2.5,6.65c-2.83,3.73-6.78,4.34-11.1,4.34q-79.09,0-158.19,0c-4.53,0-4.53,0-4.53,4.58V655.66c0,1.08,0,2.17,0,3.25,0,.46-.09,1.05.69,1a5.79,5.79,0,0,0,2.71.23H268.89a5.76,5.76,0,0,0,2.7-.23c1.44-.67.74-2,.74-3,.05-32.74,0-65.48.06-98.22,0-14,3.58-26.94,11.44-38.57a68.78,68.78,0,0,1,72.15-29,66.11,66.11,0,0,1,25.31,11.72,68.72,68.72,0,0,1,24.18,33.31c2.83,8.11,3.44,16.58,3.43,25.11q0,47.24,0,94.48c0,.92,0,1.83,0,2.75s.3,1.63,1.46,1.41a49.35,49.35,0,0,0,10.73-.12,4.06,4.06,0,0,0,2.43.26c5.33,0,10.66,0,16,0,3.5,0,3.51,0,3.51-3.49V464c0-1.34,0-2.67,0-4a12.11,12.11,0,0,1,7.52-10.32c4.22-1.5,9.58.11,12.66,3.66,2.38,2.73,2.56,6,2.55,9.35q0,97.71,0,195.41c0,1.25,0,2.51-.06,3.75a22.32,22.32,0,0,1-8.21,15.89c-3,2.63-6.82,3.64-10.37,5.17l-1.36.07c-.5,0-1-.11-1.49-.11l-385.87,0c-1.74,0-3.49,0-5.23.07l-1.36-.07a10,10,0,0,0-2.21-1.06,17.85,17.85,0,0,1-7-3.57c-6.44-5-9.1-11.64-9.09-19.77q.09-184.69,0-369.39c0-.84,0-1.67,0-2.5,0-1.56-.63-2.19-2.27-2.16-3.41.06-6.83,0-10.24-.14-7.41-.33-13-3.89-17.26-9.84-1.57-2.19-1.95-4.9-3.55-7L0,266.22a22.49,22.49,0,0,0,0-2.46C-.65,254.9,3,248.1,10,243q30.65-22.75,61.36-45.43c5.56-4.13,11.39-7.92,16.58-12.54l.2,0,0-.2a12.41,12.41,0,0,0,2-1c6.06-4.47,12.13-8.94,18.14-13.5,5.18-3.94,10.67-7.5,15.58-11.8l.21,0,.07-.2c3.17-1.6,5.8-4,8.6-6.1,3.82-2.89,8-5.34,11.39-8.76l.41-.41c.67.21,1.1-.27,1.54-.6,7.85-5.8,15.72-11.57,23.51-17.45,3-2.3,6.41-4.2,9-7l.4-.37c.47.15.81.06.88-.5l.2,0,0-.2c4-2.13,7.37-5.19,11-7.85,3.08-2.24,6.44-4.14,9-7l.37-.33a102.48,102.48,0,0,0,15-11l.59-.41c.84-.51,1.71-1,2.5-1.55,5.82-4.25,11.6-8.55,17.44-12.78A22.44,22.44,0,0,1,263,75.64c9.82,7.06,19.49,14.33,29.22,21.51q22.21,16.38,44.44,32.73C340,132.31,342.47,135.21,343.27,139.35ZM295.11,607.28q0,24.62,0,49.23c0,3.66,0,3.67,3.7,3.66,27.72,0,55.45.16,83.17-.41,3.8-.08,3.86-.06,3.87-3.93,0-10.75.08-21.49,0-32.23-.2-23.06.51-46.13-.38-69.18-.43-11.06-5.11-20.32-12.49-28.15-6.37-6.75-14.34-10.79-23.61-12.66a43.22,43.22,0,0,0-22.76,1.08c-9.17,3-16.35,8.67-22.23,16-6.51,8.16-9.12,17.8-9.21,28.08C295,575,295.11,591.12,295.11,607.28Z"/><path class="cls-1" d="M451.08,427.13l-1.23.16c-2.52-.5-4.77,1-7.28.95-8.2,0-16.41.49-24.56-.93a8.28,8.28,0,0,0-3.93-.18l-1.3-.11c-3-.9-6.17-1.18-9.24-1.84a198.13,198.13,0,0,1-37.05-12,185.29,185.29,0,0,1-43.14-26.33A191.33,191.33,0,0,1,274.73,328a184.26,184.26,0,0,1-11.51-26.09,188.41,188.41,0,0,1-6-20.26c-.62-2.7-.45-5.65-2-8.12.33-1,.62-2-.52-2.68l-.3-3.55a3.48,3.48,0,0,0-.84-4.33c0-.72-.09-1.45-.14-2.18a3.29,3.29,0,0,0-.11-3.82v-13.7a3.34,3.34,0,0,0,.12-3.83l.14-1.67c1.39-1,1.38-2.38.85-3.84l.29-3a2.66,2.66,0,0,0,1-3.1l.46-2.95c1-.37,1.4-1,.94-2.06.08-.34.16-.67.23-1,.77-.47,1.21-1.07.83-2l.57-1.87c.76-.29,1.41-.63.95-1.63l.46-1.45a1.86,1.86,0,0,0,1.46-2.55,2.64,2.64,0,0,0,1-1.49c.7,0,.94-.35.58-1l3.44-3.93c2.31-1.17,3.81-3.56,6.54-4.13,1.4-.29,3-.21,4-1.57l1.41-.17c1.71.49,3-.4,4.4-1.22l1-.16c3-.31,6-.79,8.68-2.49l.93-.11c1.84.66,3.16-.56,4.61-1.29l.89-.15c3-.29,6-.71,8.57-2.44l1.42-.15c1.8.5,3.18-.46,4.61-1.29l.9-.14A12.15,12.15,0,0,0,322,188l2.07-.23c1.6.48,2.83-.21,4-1.23l1.53-.23c1.68.46,3-.4,4.35-1.19l1-.23a1.66,1.66,0,0,0,2.57-.91l1.59-.2c1.46.38,2.65.12,3.34-1.38l.27-1a2.08,2.08,0,0,0,1.1-2.54l.31-1c1.64-.56,1.92-2,2.27-3.43.89-1,1.77-1.94,2.68-2.88q5.06-5.21,10.12-10.39c1.14.1,1.78-.79,2.51-1.39,13.19-10.8,28.15-17.21,45.25-18.45a79.8,79.8,0,0,1,40,7.18c3.82,1.77,3.79,1.8,6.46-1.14Q475.19,123.21,497,99.16c5-5.52,10.27-10.8,14.89-16.66l.18-.06,0-.19a11.42,11.42,0,0,0,1.32-1.07Q526.32,67,539.2,52.78c4.27-4.72,8.83-9.2,12.7-14.28l.19,0,0-.19c5-4.61,9.26-9.88,13.8-14.9,8-8.86,17.37-15.63,28.75-19.63C599.38,2.08,604.34,1.68,609,.1L610.45,0a20.52,20.52,0,0,0,2.21.09,63.08,63.08,0,0,1,26.6,4.22,63.61,63.61,0,0,1,27.82,20.19A65.54,65.54,0,0,1,679.4,48.92c1,3.61,1,7.39,2.37,10.89,0,.38,0,.75.05,1.11,0,3.28,0,6.57,0,9.85,0,.51-.06,1-.08,1.52a13.35,13.35,0,0,0-1.21,5,48.27,48.27,0,0,1-3.17,11.75,67.17,67.17,0,0,1-17.76,25.76Q630.26,141.44,601,168.11q-33.45,30.4-67,60.78c-1.61,1.46-2.44,2.73-1.33,4.91a75.49,75.49,0,0,1,8,37.09,109,109,0,0,1-1.39,14.32c-.05.43-.11.87-.16,1.3a29.36,29.36,0,0,0-1.3,3.45,74.71,74.71,0,0,1-8.94,20.64c-4.66,7.75-11,14.07-17.32,20.42-3.21,3.23-6.64,6.05-11,7.46-1.94.62-2.56,1.79-2.91,3.55-.51,2.52-1.18,5-1.84,7.49-1.59,6-3.24,12-4.82,18-1.52,5.78-3,11.57-4.48,17.35-1.63,6.26-3.24,12.52-5,18.75-1,3.47-1.35,7.27-4.32,9.86a55.66,55.66,0,0,1-15.13,9.4C458.5,424.43,454.77,425.73,451.08,427.13ZM276.37,250.61c-.2,7.6,1.49,15.77,2.74,24,.28,1.78,1.31,2.14,2.87,1.72,5.13-1.37,10.27-2.73,15.39-4.12,7.69-2.09,15.4-4.09,23-6.34,5.66-1.68,12.52,1.07,14.52,6.14,2.52,6.36.25,12.63-5.9,15.13-7.24,2.93-15,4.25-22.47,6.43q-9,2.61-18,5c-1.82.48-1.75,1.35-1.1,2.72,2.06,4.34,4,8.74,6.13,13a164.49,164.49,0,0,0,21.73,32.61c1.15,1.36,2,1.3,3.19.05,4.59-4.7,9.27-9.33,13.93-14,7.49-7.46,15-14.95,22.5-22.35a11.06,11.06,0,0,1,13.13-2C373,311.17,375,316,374,321.43c-.65,3.45-3,5.65-5.31,7.94-11.17,11.21-22.33,22.42-33.6,33.54-1.68,1.67-1.38,2.52.25,3.88,4.46,3.72,9.05,7.26,13.84,10.54A181,181,0,0,0,381,394.49c1.26.53,1.77.12,2.1-1.14,1.38-5.21,2.84-10.4,4.28-15.6,2-7.44,4.26-14.84,6.11-22.32,1.53-6.19,7.57-10.76,13.21-9.53,6.91,1.51,11,7.59,9.39,14.33-1.23,5.17-2.75,10.26-4.14,15.39-2.19,8.08-4.36,16.17-6.6,24.25-.48,1.73.13,2.52,1.77,2.8,10,1.71,20,3.37,30.26,2.6a56.13,56.13,0,0,0,18.16-4c2-.84,3.82-2,4.35-4.4s1.11-4.69,1.72-7q2.3-8.78,4.65-17.56t4.65-17.57c1.59-6,3.09-12.05,4.85-18,.78-2.66.6-4.6-1.53-6.68-9-8.78-17.83-17.74-26.73-26.63Q399.2,255,350.9,206.71a3.6,3.6,0,0,0-3.8-1.12l-7,1.84c-5.85,1.56-11.69,3.15-17.55,4.7s-12,3.16-18.06,4.73-12.18,3.3-18.33,4.68a7.61,7.61,0,0,0-5.81,5.1C277.41,234.1,276.33,241.86,276.37,250.61ZM658.53,64c.28-2.24-.52-5.82-1.41-9.2a42.66,42.66,0,0,0-8.86-16.69,41.47,41.47,0,0,0-14.53-11.06,48.32,48.32,0,0,0-15.8-3.76c-9.56-.91-17.89,2.1-25.8,7.11-5.52,3.5-9.46,8.54-13.73,13.28q-20.29,22.49-40.59,45-12.28,13.57-24.62,27.1-21,22.89-42,45.67c-1.61,1.72-1.72,2.71,0,4.41,9.74,9.58,19.34,19.29,29,28.92,5.18,5.16,10.4,10.29,15.7,15.33.83.78,1.69,2.63,3.47,1,3.4-3.17,6.9-6.24,10.33-9.38,6.68-6.12,13.3-12.3,20-18.4q17.88-16.25,35.85-32.43c4.36-4,8.66-8,13-12q15.5-14.07,31-28.1c4.37-4,8.57-8.12,13.06-12C653,90,658.16,78.89,658.53,64ZM517.46,267.7c.35-4.7-.66-10.41-2.45-16.1a50.69,50.69,0,0,0-12-20.84c-17-17.17-34.08-34.2-51.14-51.27a52.39,52.39,0,0,0-23.64-13.43c-9.18-2.51-18.55-3.17-28.05-.79a60.19,60.19,0,0,0-19.79,8.91c-4.7,3.24-8.41,7.5-12.51,11.36-3,2.8-3.09,2.66-.21,5.54q56.72,56.71,113.47,113.4c3.53,3.51,7.28,6.82,10.79,10.37.95,1,1.86,1.36,3,.22,4.75-4.86,9.64-9.52,13.48-15.26C514.64,290.4,517.71,280.21,517.46,267.7Z"/><path class="cls-2" d="M314.54,190.5l-.9.14c-1.78-.45-3.43-.41-4.61,1.29l-1.42.15c-3-.39-5.51,1.11-8.23,1.81-.16,0-.23.42-.34.63l-.89.14c-1.85-.67-3.31,0-4.61,1.3l-.93.11c-3-.34-5.56,1.05-8.27,1.89-.18.06-.28.39-.41.6l-1,.16a3.43,3.43,0,0,0-4.4,1.22l-1.41.17c-2-.93-3.6.52-5.17,1.07-2.2.78-4.58,1.95-5.38,4.63l-3.44,3.93c-.56.11-.73.46-.58,1a2.68,2.68,0,0,1-1,1.49c-.73.72-1.63,1.33-1.47,2.55-.15.49-.31,1-.46,1.45-.88.21-1.31.69-.95,1.63l-.57,1.87c-.86.42-1.29,1-.83,2-.07.33-.15.66-.23,1a1.7,1.7,0,0,0-.94,2.07c-.15,1-.31,2-.46,2.95a2.57,2.57,0,0,0-1,3.1c-.1,1-.19,2-.29,3-1.28,1.06-1.08,2.44-.85,3.84-.05.56-.1,1.12-.14,1.67a4.06,4.06,0,0,0-.12,3.83v13.7a4.1,4.1,0,0,0,.11,3.82c0,.73.09,1.46.14,2.18-.18,1.53-.53,3.1.84,4.33l.3,3.55c-.19.82-.38,1.64-.56,2.46-6.73.22-13.46.27-20.19,0a1.34,1.34,0,0,0-1.38-1.39c-.05-.68-.11-1.35-.16-2,.15-1.8-1-3.13-1.95-4.34-2.81-3.47-6.7-4.55-11-4.54q-95,0-190.06,0a6.76,6.76,0,0,1-3-.22,1.6,1.6,0,0,1,.88-1.32q10.74-8,21.48-15.95c.6-.45,1.35-.71,1.23-1.66l.48-.23c2.12-.66,4-1.63,5-3.79l.09-.06c1,.29,1.53-.36,2.2-.86,6.22-4.61,12.5-9.14,18.65-13.85,1.43-1.1,3.45-1.68,4.06-3.72l.09-.08a8,8,0,0,0,5.37-4l.1-.09c.82.26,1.38-.16,2-.64,5.44-4.11,10.91-8.18,16.35-12.3,1.13-.85,2.71-1.27,3.07-2.94l.1-.07c2,.1,3.07-1.6,4.45-2.63,1.55-1.16,3.7-1.69,4.41-3.83l.1-.1a2.4,2.4,0,0,0,2-.71l17.36-12.86a1.3,1.3,0,0,0,.61-1.26l.46-.23c.76.24,1.06-.06,1-.82l.09-.09c1.77-.34,3.35-.94,3.94-2.89l.48-.24c2.13-.64,4-1.58,5-3.79l.11-.06c1,.31,1.52-.34,2.19-.84,6.16-4.58,12.38-9.07,18.46-13.74,1.5-1.14,3.57-1.76,4.25-3.84l.09-.09c.83.24,1.38-.2,2-.67,5.32-4,10.69-7.93,16-12,1.24-1,3-1.46,3.48-3.24l.08-.07a8.29,8.29,0,0,0,5.38-4l.1-.08c1,.29,1.52-.33,2.2-.83q12.84-9.54,25.71-19c.55-.4,1.16-.69,1-1.51l.46-.25c.75.25,1.07,0,1-.8l.09-.1c1.78-.33,3.35-.94,4-2.88l.48-.26c.24,0,.56.2.69.1,3-2.3,6-4.62,9-6.94l1-.9c.88.15,1.33-.29,1.49-1.11l2-1.4,2.29,0c.35.29.71.57,1.07.85.13.69.64.79,1.22.78A9.79,9.79,0,0,1,256,99.1c.31,1.26,1.27,1.62,2.41,1.72l.15.16c0,.69.3.92.95.75l.54.27c0,.61.23.9.85.83l.58.32c.17.78.58,1.26,1.45,1.15l.58.27c.12.88.55,1.35,1.49,1.17l.53.29c0,.61.25.88.86.8l.58.34c.17.78.59,1.24,1.44,1.15l.59.29c.12.85.55,1.31,1.47,1.16l1,.89a.7.7,0,0,0,1,.63l1.05.83c.1.6.46.77,1,.62.72.77,1.92.93,2.47,1.92a.7.7,0,0,0,1,.64l3.63,2.67c-.06.65.22.94.89.81a4.08,4.08,0,0,1,2,1.44c.68,1.48,2,2,3.45,2.6l1.14.68c0,.63.26.9.89.79l.58.27a4.78,4.78,0,0,0,3.48,2.67l.52.31c0,.6.27.87.87.79l.59.3c.13.83.56,1.29,1.45,1.17l.56.29c.11.87.55,1.33,1.47,1.18l11.12,8.17a3.47,3.47,0,0,0,2.91,2.3l2.55,1.77c0,.62.26.89.88.79l.57.3a4.71,4.71,0,0,0,3.51,2.63l2,1.41c.49,1.37,1.69,1.79,2.91,2.19l2.09.82c.2.9.81.84,1.48.63l5.16,0c1.53.3,2.49-.7,3.51-1.56a6.66,6.66,0,0,1,2.23-1.78,1.7,1.7,0,0,0,1.42-.77l5.66,3.61.54.3c.3.64.6,1.28,1.5,1.13l1.22.72a13.59,13.59,0,0,0,5.72,4.39c.82.62,1.42,1.55,2.5,1.8.09.33.19.65.28,1q-5.07,5.19-10.12,10.39c-.91.94-1.79,1.92-2.68,2.88-1.3.78-2.42,1.68-2.27,3.43-.1.34-.21.68-.31,1-1.31.43-1.43,1.39-1.1,2.54l-.27,1a3.91,3.91,0,0,0-3.34,1.38l-1.58.2c-1.08-.33-2.05-.33-2.58.91l-1,.23c-1.61-.19-3.2-.32-4.35,1.19l-1.53.23c-1.62-.55-2.84.19-4,1.23L322,188a24.14,24.14,0,0,0-7.08,1.92C314.72,190,314.65,190.29,314.54,190.5Z"/><path class="cls-1" d="M158.76,489.43c18.57,0,37.14.18,55.71-.08a12.39,12.39,0,0,1,12.58,12.7c-.17,37.15-.09,74.29-.06,111.44,0,5.21-2,9.12-6.72,11.54a12.53,12.53,0,0,1-5.84,1q-55.73,0-111.44.05c-5,0-8.9-1.66-11.41-6.13a13.4,13.4,0,0,1-1.33-6.78q-.06-55.45,0-110.93c0-5.54,2-9.82,7.41-12.09,1.93-.82,3.92-.69,5.9-.7Q131.14,489.41,158.76,489.43Zm45.4,39.84c0-5,0-10,0-15,0-1.52-.51-2.07-2-2.07q-15,.06-30,0c-1.67,0-2.34.58-2.33,2.35q.1,14.51,0,29c0,2,.66,2.89,2.73,2.88q14.49-.07,29,0c2,0,2.64-.76,2.61-2.67C204.11,538.94,204.16,534.1,204.16,529.27Zm-17,73.92c4.83,0,9.65-.06,14.48,0,1.94,0,2.58-.66,2.56-2.62q-.12-14.36,0-28.7c0-2.13-.75-2.69-2.75-2.68q-14.34.1-28.69,0c-2.1,0-2.94.63-2.92,2.87q.16,14.1,0,28.19c0,2.2.72,3,2.85,2.93C177.51,603.13,182.34,603.19,187.16,603.19ZM147.1,529c0-4.83,0-9.66,0-14.49,0-1.69-.46-2.36-2.26-2.35q-14.73.1-29.48,0c-1.75,0-2.31.66-2.3,2.37q.09,14.49,0,29c0,2.12.75,2.92,3,2.9q14.11-.13,28.24,0c2.27,0,2.87-.86,2.84-2.94C147,538.69,147.1,533.86,147.1,529Zm0,57.25c0-4.84-.07-9.67,0-14.5.05-2-.68-2.59-2.62-2.57q-14.37.1-28.74,0c-1.9,0-2.7.57-2.68,2.57q.1,14.37,0,28.74c0,1.87.55,2.71,2.56,2.7q14.5-.11,29,0c1.85,0,2.51-.6,2.48-2.45C147,595.94,147.1,591.11,147.1,586.28Z"/><path class="cls-1" d="M158.67,318.73c18.49,0,37,.21,55.47-.11a12.5,12.5,0,0,1,12.92,12.88q-.28,55.59,0,111.19c0,6.91-4.67,12.69-12.52,12.66q-55.84-.18-111.69,0c-7.24,0-12.41-4.55-12.56-11.82,0-.75,0-1.5,0-2.25V332.84c0-3.44.1-6.91,2.41-9.72a11.91,11.91,0,0,1,9.83-4.43C121.2,318.77,139.93,318.73,158.67,318.73Zm11.21,39.66c0,4.82.07,9.66,0,14.48,0,2.19.83,2.93,3,2.91q14.35-.09,28.73,0c1.93,0,2.66-.67,2.65-2.61q-.09-14.73,0-29.47c0-1.61-.49-2.24-2.12-2.23q-14.87.06-29.72,0c-2,0-2.56.75-2.51,2.69C170,348.89,169.89,353.64,169.88,358.39Zm-22.78.21c0-4.91,0-9.82,0-14.73,0-1.62-.32-2.43-2.19-2.42-9.82.07-19.64.05-29.46,0-1.66,0-2.39.49-2.38,2.29q.09,14.61,0,29.21c0,2.14.83,2.87,3,2.84,9.24-.1,18.48,0,27.71-.05,3.17,0,3.27-.08,3.28-3.17C147.11,367.92,147.1,363.26,147.1,358.6Zm57.06,57.21c0-5-.06-10,0-15,0-1.77-.68-2.37-2.33-2.37q-14.73,0-29.45,0c-1.87,0-2.59.76-2.57,2.73.09,9.56.11,19.13,0,28.7,0,2.11.88,2.55,2.68,2.54,9.73,0,19.46-.06,29.2,0,2,0,2.53-.78,2.48-2.68C204.08,425.13,204.16,420.47,204.16,415.81Zm-73.89,16.62c4.74,0,9.49-.07,14.22,0,1.89,0,2.67-.46,2.65-2.51q-.13-14.46,0-28.94c0-2-.69-2.59-2.62-2.58q-14.35.12-28.7,0c-2.09,0-2.74.79-2.72,2.81q.1,14.22,0,28.44c0,2.05.63,2.82,2.72,2.77C120.62,432.35,125.45,432.43,130.27,432.43Z"/><path class="cls-1" d="M357.27,91.06c-21.92.36-40-18.42-39.77-39.92a39.89,39.89,0,1,1,39.77,39.92Zm0-22.83a16.93,16.93,0,1,0-16.91-17.14A17,17,0,0,0,357.26,68.23Z"/><path class="cls-1" d="M551.09,398.47a39.81,39.81,0,1,1-.59,79.61A40.05,40.05,0,0,1,511,437.57C511.28,416.29,529.13,398,551.09,398.47Zm-17.3,39.89a17,17,0,0,0,17.06,16.81c9.79,0,17-7.57,17.07-17.06a17.07,17.07,0,0,0-34.13.25Z"/><path class="cls-1" d="M78.63,90.91c-.25-3.11,1.15-5.84,3.48-8.17,5.57-5.57,11.15-11.11,16.71-16.69a11.49,11.49,0,0,1,19.7,6.55,10.45,10.45,0,0,1-3,8.93c-5.89,6.06-11.8,12.11-17.94,17.92-3.7,3.5-8.25,4.34-12.89,1.85A10.76,10.76,0,0,1,78.63,90.91Z"/><path class="cls-1" d="M169.58,91.11a11.52,11.52,0,0,1-6.45,10.09c-4.42,2.22-8.89,1.76-12.5-1.66q-9.15-8.66-17.83-17.81a10.75,10.75,0,0,1-1.67-13,11.91,11.91,0,0,1,11.49-5.95,11.51,11.51,0,0,1,7,3.52q8.19,8.18,16.36,16.39A12.08,12.08,0,0,1,169.58,91.11Z"/><path class="cls-1" d="M169.53,23.07a10.83,10.83,0,0,1-3.12,7.64q-8.79,9-17.8,17.68c-3.5,3.37-7.84,3.66-12.09,2A11.19,11.19,0,0,1,129.67,39a10.32,10.32,0,0,1,2.81-6.51q9-9.14,18.16-18c3.43-3.32,7.74-3.48,11.88-1.94A11.23,11.23,0,0,1,169.53,23.07Z"/><path class="cls-1" d="M106.25,51a9.55,9.55,0,0,1-7.36-3.12C93.2,42.33,87.44,36.78,82,31s-4.06-14.38,3.08-18.26c3.39-1.84,9.14-1.41,12.19,1.48,6.25,5.94,12.42,12,18.32,18.28,3.24,3.45,3.41,7.91,1.6,12.17S111.31,51.06,106.25,51Z"/><path class="cls-1" d="M624.73,296c0,4,0,8,0,12-.1,6.78-6.4,10.92-11.39,10.81a11.63,11.63,0,0,1-11.36-11c-.25-7.89-.2-15.8,0-23.69.13-5.1,4.47-10,9-10.63,6-.91,11.06,1.69,13.17,6.91a14.57,14.57,0,0,1,.71,5.42c0,3.41,0,6.82,0,10.23Z"/><path class="cls-1" d="M647.47,318.75c3.84,0,7.67-.05,11.5,0a11.38,11.38,0,1,1-.05,22.76q-11.37.12-22.74,0a11.4,11.4,0,1,1,.05-22.79C640,318.82,643.72,318.75,647.47,318.75Z"/><path class="cls-1" d="M579.27,341.55c-3.83,0-7.66.06-11.49,0A11.57,11.57,0,0,1,556.45,330a11.43,11.43,0,0,1,11.37-11.21q11.37-.12,22.75,0c6.81.09,11.45,4.86,11.39,11.5-.06,6.42-4.83,11.16-11.44,11.27C586.77,341.6,583,341.55,579.27,341.55Z"/><path class="cls-1" d="M615.67,387h-4.41c-5.54-1.93-9-5.62-9.18-11.66-.19-7.41-.17-14.83,0-22.24a11.61,11.61,0,0,1,10.86-11.54,11.37,11.37,0,0,1,11.74,11.52c-.08,7.41,0,14.82,0,22.24a12.33,12.33,0,0,1-1,5.09C622.07,384,619,385.58,615.67,387Z"/><path class="cls-3" d="M295.11,607.28c0-16.16-.11-32.32,0-48.47.09-10.28,2.7-19.92,9.21-28.08,5.88-7.37,13.06-13,22.23-16a43.22,43.22,0,0,1,22.76-1.08c9.27,1.87,17.24,5.91,23.61,12.66,7.38,7.83,12.06,17.09,12.49,28.15.89,23.05.18,46.12.38,69.18.1,10.74,0,21.48,0,32.23,0,3.87-.07,3.85-3.87,3.93-27.72.57-55.45.39-83.17.41-3.7,0-3.7,0-3.7-3.66Q295.1,631.9,295.11,607.28Zm68.48-14.19c0-4.78,0-8.61,0-12.43a11.54,11.54,0,0,0-8.38-11c-8-2-14.58,3.32-14.73,11.95-.12,7-.08,14,0,21a11.87,11.87,0,0,0,2.63,7.63c2.64,3.12,6,5.16,10.21,4.48,5.07-.81,8.65-3.67,9.85-8.83C364.21,601.3,363.32,596.68,363.59,593.09Z"/><path class="cls-3" d="M49.9,241.77c.12.95-.63,1.21-1.23,1.66q-10.76,7.95-21.48,15.95a1.6,1.6,0,0,0-.88,1.32,6.76,6.76,0,0,0,3,.22q95,0,190.06,0c4.33,0,8.22,1.07,11,4.54,1,1.21,2.1,2.54,1.95,4.34a1.09,1.09,0,0,1-.92-.75c-2.58-5.64-7.37-7.23-13.09-7.23q-95.1,0-190.21,0c-1.34,0-3.38.8-3.89-.61s1.56-2.06,2.63-2.86q10.47-7.83,21-15.55A12.93,12.93,0,0,1,49.9,241.77Z"/><path class="cls-3" d="M228.4,109.81c.12.82-.49,1.11-1,1.51q-12.87,9.5-25.71,19c-.68.5-1.25,1.12-2.2.83,3.51-3.37,7.61-6,11.48-8.9,5.14-3.87,10.32-7.68,15.51-11.49A12,12,0,0,1,228.4,109.81Z"/><path class="cls-3" d="M172.35,151.26c-.68,2.08-2.75,2.7-4.25,3.84-6.08,4.67-12.3,9.16-18.46,13.74-.67.5-1.23,1.15-2.19.84,1.46-2.11,3.76-3.19,5.73-4.67q8.23-6.24,16.54-12.37A18.77,18.77,0,0,1,172.35,151.26Z"/><path class="cls-3" d="M80.38,219.26c-.61,2-2.63,2.62-4.06,3.72-6.15,4.71-12.43,9.24-18.65,13.85-.67.5-1.24,1.15-2.2.86,2-2.48,4.84-4,7.34-5.84Q70.58,226,78.4,220.27A13.15,13.15,0,0,1,80.38,219.26Z"/><path class="cls-3" d="M193.89,135.29c-.5,1.78-2.24,2.28-3.48,3.24-5.28,4-10.65,8-16,12-.62.47-1.17.91-2,.67,3.81-3.84,8.42-6.63,12.73-9.82C188,139.25,190.64,136.81,193.89,135.29Z"/><path class="cls-3" d="M107.37,199.26c-.36,1.67-1.94,2.09-3.07,2.94-5.44,4.12-10.91,8.19-16.35,12.3-.63.48-1.19.9-2,.64,2.23-2.72,5.35-4.36,8.11-6.41C98.42,205.48,102.61,202,107.37,199.26Z"/><path class="cls-3" d="M136.42,177.8a1.3,1.3,0,0,1-.61,1.26l-17.36,12.86a2.4,2.4,0,0,1-2,.71c2.22-2.73,5.3-4.4,8.09-6.41C128.45,183.36,132.09,180.09,136.42,177.8Z"/><path class="cls-3" d="M244.07,98.68c-3,2.32-6,4.64-9,6.94-.13.1-.45-.06-.69-.1C237.19,102.67,240,99.82,244.07,98.68Z"/><path class="cls-3" d="M116.33,192.73c-.71,2.14-2.86,2.67-4.41,3.83-1.38,1-2.4,2.73-4.45,2.63A37.79,37.79,0,0,1,116.33,192.73Z"/><path class="cls-3" d="M85.84,215.23a8,8,0,0,1-5.37,4A12.92,12.92,0,0,1,85.84,215.23Z"/><path class="cls-3" d="M55.38,237.75c-1,2.16-2.88,3.13-5,3.79A9.82,9.82,0,0,1,55.38,237.75Z"/><path class="cls-3" d="M147.34,169.74c-.94,2.21-2.85,3.15-5,3.79A10.24,10.24,0,0,1,147.34,169.74Z"/><path class="cls-3" d="M199.35,131.26a8.29,8.29,0,0,1-5.38,4A14.72,14.72,0,0,1,199.35,131.26Z"/><path class="cls-3" d="M233.87,105.78c-.6,1.94-2.17,2.55-4,2.88A8.18,8.18,0,0,1,233.87,105.78Z"/><path class="cls-3" d="M141.88,173.77c-.59,1.95-2.17,2.55-3.94,2.89A8.19,8.19,0,0,1,141.88,173.77Z"/><path class="cls-3" d="M287.86,122.82c-1.4-.55-2.77-1.12-3.45-2.6A3.75,3.75,0,0,1,287.86,122.82Z"/><path class="cls-3" d="M294,127.23a4.78,4.78,0,0,1-3.48-2.67A4.2,4.2,0,0,1,294,127.23Z"/><path class="cls-3" d="M321,147.23a4.71,4.71,0,0,1-3.51-2.63A4.1,4.1,0,0,1,321,147.23Z"/><path class="cls-3" d="M338.07,150.69c-1,.86-2,1.86-3.51,1.56C335.3,150.77,336.63,150.62,338.07,150.69Z"/><path class="cls-3" d="M325.83,150.83c-1.22-.4-2.42-.82-2.91-2.19A2.78,2.78,0,0,1,325.83,150.83Z"/><path class="cls-3" d="M313.44,141.74a3.47,3.47,0,0,1-2.91-2.3C311.86,139.75,313.1,140.18,313.44,141.74Z"/><path class="cls-3" d="M258.36,100.82c-1.14-.1-2.1-.46-2.41-1.72A2.27,2.27,0,0,1,258.36,100.82Z"/><path class="cls-3" d="M233.93,273.23l-1.42.27a1.11,1.11,0,0,1,0-1.66A1.34,1.34,0,0,1,233.93,273.23Z"/><path class="cls-3" d="M250.86,95.32l-2.29,0C249.58,94.07,250,94.08,250.86,95.32Z"/><path class="cls-3" d="M341.36,147.33l.36.81a1.7,1.7,0,0,1-1.42.77C340,147.91,340.47,147.5,341.36,147.33Z"/><path class="cls-3" d="M299.41,131.27c-.92.15-1.36-.31-1.47-1.18C299,129.84,299.32,130.38,299.41,131.27Z"/><path class="cls-3" d="M297.38,129.8c-.89.12-1.32-.34-1.45-1.17C297,128.34,297.33,128.87,297.38,129.8Z"/><path class="cls-3" d="M270.42,109.77c-.92.15-1.35-.31-1.47-1.16C270,108.35,270.3,108.92,270.42,109.77Z"/><path class="cls-3" d="M268.36,108.32c-.85.09-1.27-.37-1.44-1.15C268,106.8,268.34,107.35,268.36,108.32Z"/><path class="cls-3" d="M265,105.74c-.94.18-1.37-.29-1.49-1.17C264.46,104.33,264.8,104.91,265,105.74Z"/><path class="cls-3" d="M262.88,104.3c-.87.11-1.28-.37-1.45-1.15C262.5,102.8,262.86,103.33,262.88,104.3Z"/><path class="cls-3" d="M246.58,96.67c-.16.82-.61,1.26-1.49,1.11C245.22,96.92,245.53,96.3,246.58,96.67Z"/><path class="cls-3" d="M329.4,152.28c-.67.21-1.28.27-1.48-.63C328.65,151.31,329.26,151.25,329.4,152.28Z"/><path class="cls-3" d="M253.15,97c-.58,0-1.09-.09-1.22-.78C252.69,95.88,253.18,96,253.15,97Z"/><path class="cls-3" d="M316.87,144.3c-.62.1-.91-.17-.88-.79C316.65,143.36,316.94,143.64,316.87,144.3Z"/><path class="cls-3" d="M295.34,128.33c-.6.08-.89-.19-.87-.79C295.15,127.38,295.42,127.65,295.34,128.33Z"/><path class="cls-3" d="M289.89,124.29c-.63.11-.92-.16-.89-.79C289.68,123.34,289.94,123.63,289.89,124.29Z"/><path class="cls-3" d="M282.41,118.78c-.67.13-1-.16-.89-.81C282.2,117.81,282.5,118.08,282.41,118.78Z"/><path class="cls-3" d="M277.89,115.3a.7.7,0,0,1-1-.64C277.6,114.33,277.9,114.58,277.89,115.3Z"/><path class="cls-3" d="M274.45,112.74c-.55.15-.91,0-1-.62C274.08,111.84,274.42,112,274.45,112.74Z"/><path class="cls-3" d="M272.39,111.29a.7.7,0,0,1-1-.63C272.11,110.32,272.41,110.56,272.39,111.29Z"/><path class="cls-3" d="M229.83,108.76c.1.78-.22,1-1,.8A1,1,0,0,1,229.83,108.76Z"/><path class="cls-3" d="M266.34,106.83c-.61.08-.89-.19-.86-.8C266.18,105.86,266.46,106.13,266.34,106.83Z"/><path class="cls-3" d="M260.85,102.83c-.62.07-.89-.22-.85-.83C260.68,101.87,261,102.14,260.85,102.83Z"/><path class="cls-3" d="M259.46,101.73c-.65.17-1-.06-.95-.75C259.14,100.83,259.42,101.13,259.46,101.73Z"/><path class="cls-3" d="M137.85,176.75c.09.76-.21,1.06-1,.82A1,1,0,0,1,137.85,176.75Z"/><path class="cls-4" d="M276.37,250.61c0-8.75,1-16.51,4-24a7.61,7.61,0,0,1,5.81-5.1c6.15-1.38,12.23-3.09,18.33-4.68s12.05-3.14,18.06-4.73,11.7-3.14,17.55-4.7l7-1.84a3.6,3.6,0,0,1,3.8,1.12q48.27,48.36,96.63,96.64c8.9,8.89,17.73,17.85,26.73,26.63,2.13,2.08,2.31,4,1.53,6.68-1.76,6-3.26,12-4.85,18q-2.34,8.77-4.65,17.57t-4.65,17.56c-.61,2.33-1.2,4.67-1.72,7s-2.37,3.56-4.35,4.4a56.13,56.13,0,0,1-18.16,4c-10.22.77-20.24-.89-30.26-2.6-1.64-.28-2.25-1.07-1.77-2.8,2.24-8.08,4.41-16.17,6.6-24.25,1.39-5.13,2.91-10.22,4.14-15.39,1.59-6.74-2.48-12.82-9.39-14.33-5.64-1.23-11.68,3.34-13.21,9.53-1.85,7.48-4.06,14.88-6.11,22.32-1.44,5.2-2.9,10.39-4.28,15.6-.33,1.26-.84,1.67-2.1,1.14a181,181,0,0,1-31.89-17.16c-4.79-3.28-9.38-6.82-13.84-10.54-1.63-1.36-1.93-2.21-.25-3.88,11.27-11.12,22.43-22.33,33.6-33.54,2.28-2.29,4.66-4.49,5.31-7.94,1-5.42-1-10.26-5.87-12.79a11.06,11.06,0,0,0-13.13,2c-7.55,7.4-15,14.89-22.5,22.35-4.66,4.64-9.34,9.27-13.93,14-1.22,1.25-2,1.31-3.19-.05a164.49,164.49,0,0,1-21.73-32.61c-2.15-4.29-4.07-8.69-6.13-13-.65-1.37-.72-2.24,1.1-2.72q9-2.38,18-5c7.49-2.18,15.23-3.5,22.47-6.43,6.15-2.5,8.42-8.77,5.9-15.13-2-5.07-8.86-7.82-14.52-6.14-7.63,2.25-15.34,4.25-23,6.34-5.12,1.39-10.26,2.75-15.39,4.12-1.56.42-2.59.06-2.87-1.72C277.86,266.38,276.17,258.21,276.37,250.61Z"/><path class="cls-3" d="M658.53,64c-.37,14.87-5.53,26-15.83,34.82-4.49,3.83-8.69,8-13.06,12q-15.51,14.07-31,28.1c-4.37,4-8.67,8-13,12q-17.93,16.23-35.85,32.43c-6.71,6.1-13.33,12.28-20,18.4-3.43,3.14-6.93,6.21-10.33,9.38-1.78,1.65-2.64-.2-3.47-1-5.3-5-10.52-10.17-15.7-15.33-9.69-9.63-19.29-19.34-29-28.92-1.73-1.7-1.62-2.69,0-4.41q21.09-22.75,42-45.67,12.36-13.5,24.62-27.1Q558.12,66.18,578.4,43.7c4.27-4.74,8.21-9.78,13.73-13.28,7.91-5,16.24-8,25.8-7.11a48.32,48.32,0,0,1,15.8,3.76,41.47,41.47,0,0,1,14.53,11.06,42.66,42.66,0,0,1,8.86,16.69C658,58.2,658.81,61.78,658.53,64Z"/><path class="cls-3" d="M517.46,267.7c.25,12.51-2.82,22.7-9.12,32.11-3.84,5.74-8.73,10.4-13.48,15.26-1.11,1.14-2,.75-3-.22-3.51-3.55-7.26-6.86-10.79-10.37q-56.81-56.62-113.47-113.4c-2.88-2.88-2.75-2.74.21-5.54,4.1-3.86,7.81-8.12,12.51-11.36a60.19,60.19,0,0,1,19.79-8.91c9.5-2.38,18.87-1.72,28.05.79a52.39,52.39,0,0,1,23.64,13.43c17.06,17.07,34.17,34.1,51.14,51.27a50.69,50.69,0,0,1,12,20.84C516.8,257.29,517.81,263,517.46,267.7Z"/><path class="cls-3" d="M266.58,205.81c.8-2.68,3.18-3.85,5.38-4.63,1.57-.55,3.21-2,5.17-1.07-1,1.36-2.61,1.28-4,1.57C270.39,202.25,268.89,204.64,266.58,205.81Z"/><path class="cls-3" d="M299,194.52c.11-.21.18-.59.34-.63,2.72-.7,5.27-2.2,8.23-1.81C305,193.81,302.05,194.23,299,194.52Z"/><path class="cls-3" d="M283.93,198.56c.13-.21.23-.54.41-.6,2.71-.84,5.3-2.23,8.27-1.89C290,197.77,287,198.25,283.93,198.56Z"/><path class="cls-3" d="M314.54,190.5c.11-.21.18-.55.36-.62A24.14,24.14,0,0,1,322,188,12.15,12.15,0,0,1,314.54,190.5Z"/><path class="cls-3" d="M278.54,199.94a3.43,3.43,0,0,1,4.4-1.22C281.59,199.54,280.25,200.43,278.54,199.94Z"/><path class="cls-3" d="M309,191.93c1.18-1.7,2.83-1.74,4.61-1.29C312.21,191.47,310.83,192.43,309,191.93Z"/><path class="cls-3" d="M293.54,196c1.3-1.26,2.76-2,4.61-1.3C296.7,195.4,295.38,196.62,293.54,196Z"/><path class="cls-3" d="M254.38,267.25c-1.37-1.23-1-2.8-.84-4.33A3.48,3.48,0,0,1,254.38,267.25Z"/><path class="cls-3" d="M329.54,186.27c1.15-1.51,2.74-1.38,4.35-1.19C332.55,185.87,331.22,186.73,329.54,186.27Z"/><path class="cls-3" d="M324.05,187.73c1.12-1,2.34-1.78,4-1.23C326.88,187.52,325.65,188.21,324.05,187.73Z"/><path class="cls-3" d="M344.07,177.77c-.15-1.75,1-2.65,2.27-3.43C346,175.75,345.71,177.21,344.07,177.77Z"/><path class="cls-3" d="M253.55,237.72c-.23-1.4-.43-2.78.85-3.84C254.93,235.34,254.94,236.69,253.55,237.72Z"/><path class="cls-3" d="M253.29,243.22a4.06,4.06,0,0,1,.12-3.83A3.34,3.34,0,0,1,253.29,243.22Z"/><path class="cls-3" d="M253.4,260.74a4.1,4.1,0,0,1-.11-3.82A3.29,3.29,0,0,1,253.4,260.74Z"/><path class="cls-3" d="M339.05,183.74a3.91,3.91,0,0,1,3.34-1.38C341.7,183.86,340.51,184.12,339.05,183.74Z"/><path class="cls-3" d="M334.89,184.85c.53-1.24,1.5-1.24,2.58-.91A1.67,1.67,0,0,1,334.89,184.85Z"/><path class="cls-3" d="M254.69,230.85a2.57,2.57,0,0,1,1-3.1A2.66,2.66,0,0,1,254.69,230.85Z"/><path class="cls-3" d="M260.1,214.78c-.16-1.22.74-1.83,1.47-2.55A1.87,1.87,0,0,1,260.1,214.78Z"/><path class="cls-3" d="M342.66,181.34c-.33-1.15-.21-2.11,1.1-2.54A2.08,2.08,0,0,1,342.66,181.34Z"/><path class="cls-3" d="M255.2,273.48l-1.08-.22c.18-.82.37-1.64.56-2.46C255.82,271.5,255.53,272.49,255.2,273.48Z"/><path class="cls-3" d="M257.29,221.74c-.46-1,0-1.59.83-2C258.5,220.67,258.06,221.27,257.29,221.74Z"/><path class="cls-3" d="M256.12,224.8a1.7,1.7,0,0,1,.94-2.07A1.37,1.37,0,0,1,256.12,224.8Z"/><path class="cls-3" d="M258.69,217.86c-.36-.94.07-1.42.95-1.63C260.1,217.23,259.45,217.57,258.69,217.86Z"/><path class="cls-3" d="M262.56,210.74c-.15-.54,0-.89.58-1C263.5,210.39,263.26,210.7,262.56,210.74Z"/><path class="cls-5" d="M204.16,529.27c0,4.83,0,9.67,0,14.5,0,1.91-.64,2.68-2.61,2.67q-14.49-.11-29,0c-2.07,0-2.74-.87-2.73-2.88q.09-14.49,0-29c0-1.77.66-2.35,2.33-2.35q15,0,30,0c1.51,0,2,.55,2,2.07C204.12,519.27,204.16,524.27,204.16,529.27Z"/><path class="cls-5" d="M187.16,603.19c-4.82,0-9.65-.06-14.47,0-2.13,0-2.87-.73-2.85-2.93q.16-14.09,0-28.19c0-2.24.82-2.89,2.92-2.87q14.34.09,28.69,0c2,0,2.78.55,2.75,2.68q-.13,14.36,0,28.7c0,2-.62,2.66-2.56,2.62C196.81,603.13,192,603.19,187.16,603.19Z"/><path class="cls-5" d="M147.1,529c0,4.83-.06,9.66,0,14.49,0,2.08-.57,3-2.84,2.94q-14.11-.16-28.24,0c-2.2,0-3-.78-3-2.9q.08-14.49,0-29c0-1.71.55-2.38,2.3-2.37q14.74.07,29.48,0c1.8,0,2.29.66,2.26,2.35C147.05,519.37,147.1,524.2,147.1,529Z"/><path class="cls-5" d="M147.1,586.28c0,4.83-.06,9.66,0,14.49,0,1.85-.63,2.46-2.48,2.45q-14.49-.11-29,0c-2,0-2.58-.83-2.56-2.7q.08-14.37,0-28.74c0-2,.78-2.58,2.68-2.57q14.37.1,28.74,0c1.94,0,2.67.59,2.62,2.57C147,576.61,147.1,581.44,147.1,586.28Z"/><path class="cls-5" d="M169.88,358.39c0-4.75.09-9.5,0-14.24-.05-1.94.55-2.7,2.51-2.69q14.86.07,29.72,0c1.63,0,2.13.62,2.12,2.23q-.09,14.73,0,29.47c0,1.94-.72,2.63-2.65,2.61q-14.37-.09-28.73,0c-2.13,0-3-.72-3-2.91C170,368.05,169.88,363.21,169.88,358.39Z"/><path class="cls-5" d="M147.1,358.6c0,4.66,0,9.32,0,14,0,3.09-.11,3.17-3.28,3.17-9.23,0-18.47-.05-27.71.05-2.18,0-3-.7-3-2.84q.06-14.61,0-29.21c0-1.8.72-2.29,2.38-2.29,9.82,0,19.64.06,29.46,0,1.87,0,2.22.8,2.19,2.42C147.06,348.78,147.1,353.69,147.1,358.6Z"/><path class="cls-5" d="M204.16,415.81c0,4.66-.08,9.32,0,14,.05,1.9-.45,2.69-2.48,2.68-9.74-.08-19.47,0-29.2,0-1.8,0-2.7-.43-2.68-2.54.11-9.57.09-19.14,0-28.7,0-2,.7-2.73,2.57-2.73q14.73,0,29.45,0c1.65,0,2.37.6,2.33,2.37C204.1,405.82,204.16,410.81,204.16,415.81Z"/><path class="cls-5" d="M130.27,432.43c-4.82,0-9.65-.08-14.47,0-2.09.05-2.73-.72-2.72-2.77q.14-14.22,0-28.44c0-2,.63-2.83,2.72-2.81q14.35.1,28.7,0c1.93,0,2.64.6,2.62,2.58q-.1,14.48,0,28.94c0,2.05-.76,2.55-2.65,2.51C139.76,432.36,135,432.43,130.27,432.43Z"/><path class="cls-5" d="M357.26,68.23a16.93,16.93,0,1,1,17.19-17A16.87,16.87,0,0,1,357.26,68.23Z"/><path class="cls-5" d="M533.79,438.36a17.07,17.07,0,0,1,34.13-.25c-.1,9.49-7.28,17.1-17.07,17.06A17,17,0,0,1,533.79,438.36Z"/><path class="cls-1" d="M363.59,593.09c-.27,3.59.62,8.21-.43,12.71-1.2,5.16-4.78,8-9.85,8.83-4.24.68-7.57-1.36-10.21-4.48a11.87,11.87,0,0,1-2.63-7.63c-.08-7-.12-14,0-21,.15-8.63,6.75-13.92,14.73-11.95a11.54,11.54,0,0,1,8.38,11C363.62,584.48,363.59,588.31,363.59,593.09Z"/></g></g></svg>