<svg xmlns="http://www.w3.org/2000/svg" viewBox="0 0 554.48 554.45"><defs><style>.cls-1{fill:#0e0c09;}.cls-2{fill:#cd9d76;}.cls-3{fill:#cbd0d8;}.cls-4{fill:#eeceb2;}.cls-5{fill:#f9d570;}.cls-6{fill:#e51c30;}.cls-7{fill:#e51e2e;}.cls-8{fill:#e51143;}.cls-9{fill:#e51e37;}.cls-10{fill:#f7f7f8;}</style></defs><g id="Слой_2" data-name="Слой 2"><g id="Слой_1-2" data-name="Слой 1"><path class="cls-1" d="M342,299.66A151.67,151.67,0,0,1,315.11,287a116.15,116.15,0,0,1-43.26-47.07,106.16,106.16,0,0,1-8.66-23.25c-.45-1.9-1.62-2-3.14-2a35.1,35.1,0,0,1-19.86-5.55c-20.35-12.65-22.25-42.51-3.6-57.58,1.58-1.27,2.34-2.43,1.86-4.61-1.55-7-3-14-4.21-21a111.33,111.33,0,0,1-.55-34.57,103.26,103.26,0,0,1,12.15-36.13A106.09,106.09,0,0,1,298.91,7.9,105.14,105.14,0,0,1,341.23.06c23.42,0,46.83-.1,70.24,0,33.3.14,60.75,13.1,82.39,38.29a101.76,101.76,0,0,1,20.79,39.27,103.11,103.11,0,0,1,2.17,48.65c-1.42,7.17-2.83,14.35-4.3,21.52a2.5,2.5,0,0,0,1.1,2.77A35,35,0,0,1,525.93,168a31.25,31.25,0,0,1,.71,18.19c-.56,2,0,3.16,1.61,4.4,5.38,4,11.09,7.62,15.63,12.7a39.28,39.28,0,0,1,9.63,19.06c3.24,16.87-2.25,30.47-15.53,41.12a4.39,4.39,0,0,0-1.92,3c-2.31,16.2-10.35,28.84-24,37.89a48.35,48.35,0,0,1-20,7.81,5.53,5.53,0,0,0-4.43,3.05c-6.93,12.43-17.55,20.14-31.28,23.52a51.68,51.68,0,0,1-15.4,1.21c-2.12-.13-2.69.63-2.66,2.68.1,8,0,16,.05,24,.16,23.87-8.1,44.14-25.67,60.48-.43.39-1.37.67-1,1.5s1.16.5,1.8.5h28.75q46.61,0,93.23,0c7.83,0,13.75,3.35,17.31,10.47a14.62,14.62,0,0,1,1.69,6.91c-.11,6.24-.14,12.49,0,18.74.19,9.39-8.12,17.53-17.31,17.7-5.08.09-10.17.16-15.25,0-2.43-.09-3.24.43-3.21,3.08.14,16.25-.08,32.5.12,48.74.12,9.68-4.84,16.46-13.93,19.44a6.55,6.55,0,0,1-1.72.23c-1.17,0-2.33,0-3.5,0q-222.45,0-444.91,0c-8,0-13.63-3.43-17.22-10.42a17.27,17.27,0,0,1-1.72-8c0-16.74,0-33.49.07-50.23,0-2.22-.45-3.05-2.85-2.95-4.91.2-9.83,0-14.75.07A18.22,18.22,0,0,1,0,464.56c.14-5.57.19-11.16,0-16.74-.37-10.21,8.12-18.8,18.72-18.76,19.83.08,39.66,0,59.49.08,2.48,0,3.32-.63,3.46-3.12.22-4.23.76-8.46,1.32-12.66.25-1.83-.71-1.92-2-1.92H19.26c-9.53,0-16.32-5.08-19-14.2A12,12,0,0,1,.06,394q0-63.11,0-126.22c0-9,7.6-16.81,16.88-17.48.91-.07,1.83-.06,2.75-.06q96.6,0,193.21,0c7.37,0,13.29,2.59,17.21,9a18.82,18.82,0,0,1,2.61,10c0,10.58.08,21.16-.06,31.74,0,2.57.75,3.2,3.25,3.17,10.67-.14,21.34.18,32-.13,9.57-.29,18.56,7.94,18.29,18-.14,5.32,0,10.66,0,16,0,1.59.52,2.64,2.11,2.86,4.56.62,8.33,3.17,12.4,5,.6.28,1.22.54,1.79.86,1.39.79,1.77.13,1.78-1.16a39.5,39.5,0,0,1,2.14-12,47.77,47.77,0,0,1,25.26-29.32C335,302.6,338.56,301.19,342,299.66ZM277.47,536.15h219c4.11,0,4.11,0,4.11-4V486.69c0-3.7,0-3.7-3.63-3.7H57.5c-3.5,0-3.5,0-3.5,3.56v45.74c0,3.85,0,3.86,3.77,3.86ZM473.93,166V137.2c0-3.35-.12-3.49-3.5-3.66-10.24-.49-20.47-.91-30.7-1.46-25.45-1.35-50.89-2.94-76.35-4.07-16.54-.73-31.68-5.36-45.38-14.6a4.42,4.42,0,0,0-5.15-.4c-7.82,4-15.66,8-23.58,11.8-8.11,3.9-12.09,10.08-12,19.2.21,13.83.1,27.66,0,41.49a106.6,106.6,0,0,0,3,26,94.58,94.58,0,0,0,20.35,39.72c16.37,19,36.94,30.46,61.91,33.91a97.19,97.19,0,0,0,43.62-3.9,93,93,0,0,0,31.45-17.31c21-17.63,33.16-40,35.72-67.47C474.4,185.68,473.67,174.93,473.93,166ZM116.39,268.46q-47.61,0-95.23,0c-2.39,0-3.1.66-3.1,3.09q.11,59.24.05,118.47c0,3.25,0,3.26,3.36,3.26H81c4.11,0,4.09,0,4.49-4,1.09-11.1,2.33-22.19,3.28-33.3.69-8.06,8-16,17.14-16,7,0,14-.17,21,0A17.51,17.51,0,0,1,144,355.67q1.92,17.25,3.36,34.55c.21,2.38.95,3.07,3.29,3.06q21.49-.15,43,0c2.53,0,3.25-.72,3.24-3.25-.09-21.83-.06-43.66,0-65.49a52.93,52.93,0,0,1,.22-5.49c.73-7.16,7.61-14.14,14.79-14.76,2.17-.19,2.76-.9,2.74-3-.1-9.91-.15-19.83,0-29.74,0-2.64-.78-3.15-3.25-3.14Q163.88,268.52,116.39,268.46Zm262-250.32c-14.49,0-26.32,0-38.15,0a88.33,88.33,0,0,0-77.08,43.09,83.75,83.75,0,0,0-11,29.17A86.47,86.47,0,0,0,250.7,112c.75,10,3.32,19.67,5,29.49.2,1.11.66,1.61,1.79,1.59s1.71-.47,1.71-1.64c0-.66.09-1.33.15-2,1.21-13.48,7.83-23.42,19.76-29.72,6.6-3.49,13.33-6.75,20.05-10,1.82-.87,1.9-1.59.66-3.08A83.84,83.84,0,0,1,287.67,77c-.91-2-.09-2.5,1.31-3.06,4.07-1.64,8.2-3.14,12.24-4.86,1.77-.76,2.53-.52,3.36,1.34a66,66,0,0,0,24.16,28.46c11.14,7.41,23.5,10.53,36.71,11.13,19.05.86,38.09,1.88,57.14,2.88q23.58,1.24,47.15,2.63c1.72.1,2.92,0,2.05-2.21a36,36,0,0,0-15.33-18.06C451,92,445,91.08,438.93,90c-1.45-.27-2.71-.51-2.31-2.42,1-4.8,2-9.59,3-14.39.21-1,.74-1.42,1.75-1.23,8.08,1.52,16.21,3,23.42,7.25,16.61,9.9,26,24.34,27,43.81.31,6,.11,12,.11,18,0,1.13.15,1.93,1.52,2.07a1.78,1.78,0,0,0,2.12-1.6c.08-.32.19-.64.25-1,1.22-6.54,2.55-13.06,3.64-19.61a85.61,85.61,0,0,0-3.77-43.77,87.48,87.48,0,0,0-34.73-44.34,83.69,83.69,0,0,0-43.18-14.38C403.74,17.77,389.74,18.33,378.41,18.14Zm-101,429.16H22.26a19.06,19.06,0,0,1-2,0c-1.63-.16-2.19.54-2.15,2.17.09,3.74,0,7.49,0,11.24,0,4.09,0,4.09,4.13,4.09h509.9c.58,0,1.17,0,1.75,0,1.77.12,2.56-.56,2.5-2.46-.11-3.74,0-7.5,0-11.24s0-3.8-3.72-3.8ZM443.85,321.68c6.67,0,10.69-.8,14.79-2.78,8.92-4.3,14.14-11.56,16.72-20.89.6-2.18,1.6-3.24,4-3.07a38.74,38.74,0,0,0,10.7-.66,35.51,35.51,0,0,0,28.41-35c0-4.27,1.2-6.33,5.09-8.18,13-6.23,16.79-22.33,8.28-34.06-3.7-5.1-9.33-7.94-14.05-11.84-1-.83-1.67,0-2.35.62A34.72,34.72,0,0,1,491,214.63a2.3,2.3,0,0,0-2.76,2.05,112.27,112.27,0,0,1-8.85,23.47c-13,25-32.3,43.34-58.26,54.54-1.81.78-2.11,1.46-.45,2.81a45.94,45.94,0,0,1,15,21.87c.5,1.55,1.26,2.59,3.21,2.35A41.51,41.51,0,0,1,443.85,321.68ZM360.38,429a56.68,56.68,0,0,0,32.72-9.61A58.65,58.65,0,0,0,417.19,388c2.31-7,2.39-6.81-4.92-7.94-8.54-1.33-17-3-25.52-4.59-8.91-1.64-17.81-3.32-26.72-4.95-2.62-.48-5.25-.87-7.87-1.29a1.37,1.37,0,0,0-1.66.77c-.36.8.15,1.24.7,1.65l1.41,1a72.6,72.6,0,0,1,20.86,23.11c1.17,2,.95,3.08-1.32,4.07a110.54,110.54,0,0,0-11.1,5.56c-2,1.13-2.76.53-3.7-1.14-4.53-8.07-10.66-14.75-18.89-19q-26.07-13.5-52.46-26.39c-4.1-2-8.35-1.14-12.31,1.42-7,4.56-6.9,18.53.54,23.33,18.06,11.65,35.8,23.78,53.72,35.65A56.69,56.69,0,0,0,360.38,429ZM214.67,362.24c0,12.4,0,24.81,0,37.22,0,1.87.29,3,2.55,2.94,16.24-.06,32.47,0,48.71,0,.72,0,1.62.2,1.89-.77s-.73-1-1.17-1.38a18.31,18.31,0,0,0-1.83-1.3A31,31,0,0,1,251,378.23c-2.72-14.23,2.93-27.2,15.5-34.57a3.37,3.37,0,0,0,2-3.35c-.07-5.16-.13-10.33,0-15.48.08-2.36-.78-3-3-3q-23.87.11-47.72,0c-2.47,0-3.08.84-3.06,3.17C214.72,337.42,214.67,349.83,214.67,362.24Zm205.51-15.76h0c0-4.58,0-9.16,0-13.74a22.36,22.36,0,0,0-1.46-7.55c-4.38-12.67-16.28-21.85-30.84-20.9-12.2.8-21.13,6.76-26.05,17.87-3.84,8.69-4.67,18.29-6.83,27.48-.36,1.51.78,1.82,1.9,2,6.46,1.16,12.92,2.3,19.38,3.47,7.19,1.3,14.37,2.65,21.57,4,6.78,1.23,13.57,2.4,20.34,3.66,1.6.3,2.06-.24,2-1.79C420.14,356.14,420.18,351.31,420.18,346.48ZM230,429.08q38.1,0,76.22,0c.78,0,1.93.43,2.27-.46.39-1.05-1-1.17-1.55-1.56-7-4.75-14.07-9.39-21.07-14.13-1.51-1-2.34-1-3.62.56a17.17,17.17,0,0,1-14.05,6.8q-26.61,0-53.22,0A17.43,17.43,0,0,1,200.42,413a3.5,3.5,0,0,0-3.11-1.59c-15.16,0-30.32.06-45.48,0-2,0-2.38.69-2.16,2.49.5,4,1,7.94,1.19,11.93.15,2.51,1.06,3.33,3.68,3.32C179.7,429,204.85,429.08,230,429.08Zm-113.82-.18c4.91,0,9.82,0,14.74,0,1.3,0,2.24-.05,2-1.86-.82-7.44-1.51-14.9-2.26-22.35-1-9.68-2-19.36-3-29-.51-5.06-1-10.11-1.51-15.16-.14-1.33-.35-2.69-2.26-2.68-5.08,0-10.16,0-15.24,0-1.32,0-2.18.4-2.3,2-.34,4.48-.78,8.95-1.23,13.42-.94,9.35-1.94,18.7-2.88,28.06-.85,8.44-1.62,16.89-2.5,25.33-.18,1.73.28,2.35,2.11,2.31C106.69,428.83,111.44,428.9,116.19,428.9ZM341.83,319.4a36.52,36.52,0,0,0-3.54,1.64c-9.79,5.62-15.13,14.15-16.23,25.31-.8,8,.84,10.75,8.18,14.29l.23.1c3,1.51,3.29,1.4,4-1.91.91-4.3,1.69-8.63,2.75-12.9,2.07-8.36,3.41-16.9,5.89-25.17C343.34,320,343.37,319.22,341.83,319.4Zm-82.55-141c0-5.37-.08-9.95,0-14.51.05-2.09-.56-3-2.71-2.52-.64.15-1.33.13-2,.32a18.1,18.1,0,0,0-13,18.92c.65,8.13,7.46,14.9,16,16,1.74.22,2.29-.44,2.09-2C259,188.92,259.37,183.26,259.28,178.41Zm232.61.47h-.09c0,4.16.06,8.32,0,12.47-.1,5.89.78,6.5,6.35,4.15.08,0,.15-.08.22-.11,8.93-3.9,13-12.45,10.49-21.82-1.66-6.12-8.26-11.67-14.36-12.22-1.87-.17-2.72.16-2.65,2.32C492,168.74,491.89,173.81,491.89,178.88Z"/><path class="cls-1" d="M26.84,214.59C12.5,215-.08,202.34,0,187.63.1,173.49,12.19,160.82,27,161a26.8,26.8,0,1,1-.14,53.59Zm9-26.75a9.08,9.08,0,0,0-8.89-8.91,8.86,8.86,0,0,0-8.77,8.71,8.73,8.73,0,0,0,8.69,9A8.9,8.9,0,0,0,35.81,187.84Z"/><path class="cls-1" d="M178.73,143.08a26.81,26.81,0,1,1,27.09-26.44A26.9,26.9,0,0,1,178.73,143.08Zm8.88-26.52a8.6,8.6,0,0,0-8.46-9.13,8.83,8.83,0,1,0-.34,17.65A8.5,8.5,0,0,0,187.61,116.56Z"/><path class="cls-1" d="M36.11,107.19c-.1-.29-.21-.57-.31-.86.46-7.47.14-15,.18-22.43,0-3.56.3-7.14-.19-10.7,0-.41,0-.83,0-1.24,5.39-.53,10.8-.13,16.2-.22,1.68,0,1.46,1.27,1.46,2.31,0,10.32,0,20.63.05,30.94,0,1.87-.76,2.2-2.37,2.18C46.09,107.12,41.1,107.18,36.11,107.19Z"/><path class="cls-1" d="M.11,71.17q0-8.4,0-16.79a13,13,0,0,1,2-.28q15.85,0,31.72,0a12.82,12.82,0,0,1,2.19.36V71.08A6.55,6.55,0,0,1,33,71.4c-8.9,0-17.8,0-26.7,0A28,28,0,0,1,.11,71.17Z"/><path class="cls-1" d="M35.74,53.09c0-.42,0-.83,0-1.25.07-.89.2-1.8.2-2.7q0-14.22,0-28.45c0-1.35,0-2.47,1.89-2.44,4.57.08,9.15,0,13.72,0,1.25,0,1.82.53,1.81,1.79q0,15.74,0,31.45c0,1-.25,1.87-1.48,1.84C46.53,53.24,41.12,53.74,35.74,53.09Z"/><path class="cls-2" d="M35.74,53.09c5.38.65,10.79.15,16.19.26,1.23,0,1.48-.82,1.48-1.84q0-15.72,0-31.45c0-1.26-.56-1.79-1.81-1.79-4.57,0-9.15.06-13.72,0C36,18.22,36,19.34,36,20.69q0,14.22,0,28.45c0,.9-.13,1.81-.2,2.7-.59-1.61-.23-3.28-.24-4.92,0-8.91,0-17.83-.06-26.74,0-2.24.66-3.1,3-3,4.24.18,8.49.14,12.74,0,2.44-.07,3.19.94,3.17,3.27-.08,10,0,20-.08,30,0,2,.52,2.72,2.64,2.7,10-.1,20,0,30,0,3.07,0,3.27.21,3.28,3.25,0,4.25-.11,8.5.05,12.75.08,2.22-.73,2.9-2.86,2.89-10-.07-20,.08-30-.1-2.66,0-3.14.82-3.11,3.24.13,10,0,20,.09,30,0,1.61-.35,2.6-2.12,2.6q-7.74,0-15.49,0c-.34,0-.66-.1-.7-.52,5,0,10-.07,15,0,1.61,0,2.38-.31,2.37-2.18-.08-10.31,0-20.62-.05-30.94,0-1,.22-2.34-1.46-2.31-5.4.09-10.81-.31-16.2.22-11,0-22.08,0-33.12,0-.84,0-2,.63-2.51-.76a28,28,0,0,0,6.21.22c8.9,0,17.8,0,26.7,0A6.55,6.55,0,0,0,36,71.08c5.07,0,10.13,0,15.2.11,1.57,0,2-.61,2-2.07q-.09-6.35,0-12.71c0-1.45-.39-2.09-2-2.06-5.07.1-10.13.09-15.2.12a12.82,12.82,0,0,0-2.19-.36q-15.85,0-31.72,0a13,13,0,0,0-2,.28C0,52.44,1.52,53.13,2.4,53.13,13.51,53.08,24.62,53.09,35.74,53.09Zm36,18.31c5.08,0,10.15,0,15.23,0,1.5,0,2.33-.33,2.3-2.06-.07-4.41-.06-8.82,0-13.24,0-1.51-.62-2-2.09-2q-15.48,0-31,0c-1.67,0-2.16.65-2.13,2.22.06,4.33.07,8.66,0,13,0,1.63.56,2.18,2.18,2.16C61.43,71.35,66.59,71.4,71.75,71.4Z"/><path class="cls-1" d="M80.37,232.68c-2.33,0-4.66-.05-7,0-1.3,0-1.82-.5-1.82-1.74,0-4.91,0-9.82,0-14.72,0-1.27.52-1.76,1.8-1.74q7.11.06,14.23,0c1.49,0,2.09.64,2.08,2.1,0,4.66,0,9.31,0,14,0,1.67-.81,2.17-2.33,2.13C85,232.64,82.7,232.68,80.37,232.68Z"/><path class="cls-1" d="M107.41,8.88c0,2.33,0,4.67,0,7,0,1.51-.39,2.28-2.13,2.24-4.49-.11-9-.09-13.49,0-1.75,0-2.38-.72-2.37-2.39,0-4.66.06-9.33,0-14C89.41.38,89.9,0,91.15,0c4.92,0,9.84.05,14.75,0,1.25,0,1.56.48,1.53,1.62C107.37,4.05,107.41,6.47,107.41,8.88Z"/><path class="cls-1" d="M107.42,134.46c0,2.25,0,4.5,0,6.74,0,1.34-.32,2-1.81,1.94-4.75-.08-9.5,0-14.24,0-1.35,0-2-.49-1.94-1.91,0-4.67,0-9.33,0-14,0-1.37.59-2,1.94-2,4.75,0,9.49,0,14.24,0,1.5,0,1.83.71,1.81,2C107.38,129.63,107.42,132,107.42,134.46Z"/><path class="cls-1" d="M170.18,180,170,196.49l-1,.57a152.69,152.69,0,0,0-16,.06c-.29-.5-.58-1-1.24-1.1a125.06,125.06,0,0,0,0-16.54,4.38,4.38,0,0,1,1.85-.63c5.45.07,10.91.11,16.37.16l.17.48c0,.06-.09.12-.08.18A2.24,2.24,0,0,0,170.18,180Z"/><path class="cls-1" d="M133,197.08c-5.16-.29-10.33-.22-15.49,0a3.23,3.23,0,0,1-1.17-2.59q.09-6.72,0-13.44c0-1.6.61-2.2,2.2-2.18,4.65.06,9.29,0,13.94,0,1.22,0,1.81.3,1.8,1.66q-.09,7.22,0,14.43A2.17,2.17,0,0,1,133,197.08Z"/><path class="cls-1" d="M160.12,35.91l-15.74,0c-.08-.26-.17-.28-.28,0l-.93-.37c0-5,.15-10,.1-14.94,0-1.76.62-2.33,2.32-2.3,4.24.07,8.48.09,12.72,0,2,0,2.58.82,2.54,2.69-.09,4.24,0,8.48,0,12.72A2.57,2.57,0,0,1,160.12,35.91Z"/><path class="cls-1" d="M195.63,35.86l-15.8,0a2,2,0,0,1-.78-1.94c0-4.57,0-9.14,0-13.7,0-1.59.72-2,2.12-2,4.4,0,8.8,0,13.2,0,1.73,0,2.35.71,2.32,2.4-.06,4.39,0,8.8,0,13.2A1.84,1.84,0,0,1,195.63,35.86Z"/><path class="cls-1" d="M161.36.15l17.26,0c0,5.14,0,10.29.09,15.44,0,1.53-.57,2-2.05,2-4.32-.06-8.64-.1-12.95,0-1.92.05-2.42-.68-2.38-2.48C161.42,10.12,161.36,5.14,161.36.15Z"/><path class="cls-2" d="M161.36.15c0,5,.06,10,0,15,0,1.8.46,2.53,2.38,2.48,4.31-.12,8.63-.08,12.95,0,1.48,0,2.08-.46,2.05-2-.08-5.15-.07-10.3-.09-15.44,1.23.35.69,1.37.7,2.08.06,4.25.1,8.5,0,12.75,0,1.75.58,2.33,2.31,2.3,4.25-.09,8.5,0,12.75-.06,2.08,0,3.07.65,3,2.87-.09,4.67,0,9.33,0,14,0,1.17,0,2.29-1.75,1.79a1.84,1.84,0,0,0,1.05-2c0-4.4-.06-8.81,0-13.2,0-1.69-.59-2.43-2.32-2.4-4.4,0-8.8,0-13.2,0-1.4,0-2.15.4-2.12,2,.06,4.56,0,9.13,0,13.7a2,2,0,0,0,.78,1.94,7.05,7.05,0,0,0-.47,3.66c0,4.06,0,8.13,0,12.19,0,1.82-.59,2.72-2.63,2.66-4.47-.12-9-.09-13.44,0-2,0-2.82-.88-2.79-2.85,0-4.23,0-8.46,0-12.7a7,7,0,0,0-.39-2.93,2.57,2.57,0,0,0,.7-2.26c0-4.24-.06-8.48,0-12.72,0-1.87-.53-2.73-2.54-2.69-4.24.1-8.48.08-12.72,0-1.7,0-2.34.54-2.32,2.3,0,5-.06,10-.1,14.94-1-1-.43-2.19-.45-3.27-.09-4,0-8-.06-11.95,0-2.16.68-3.17,3-3.08,4.06.15,8.13,0,12.19.08,1.9.05,2.43-.66,2.39-2.47-.11-4.23-.06-8.46,0-12.69C160.28,1.34,159.76.11,161.36.15ZM170.18,36c-2.32,0-4.65.06-7,0-1.4-.06-1.89.44-1.87,1.85q.09,6.72,0,13.45c0,1.63.66,2.18,2.24,2.16q6.6-.09,13.21,0c1.38,0,1.93-.46,1.91-1.87,0-4.64,0-9.3,0-14,0-1.38-.58-1.67-1.8-1.64C174.67,36,172.43,36,170.18,36Zm-.2-.45c2.25,0,4.5,0,6.75,0,1.2,0,1.82-.23,1.8-1.63-.07-4.58-.06-9.16,0-13.74,0-1.4-.64-1.66-1.83-1.65q-6.51.06-13,0c-1.31,0-2,.33-2,1.81.06,4.5,0,9,0,13.49,0,1.32.51,1.76,1.78,1.72C165.65,35.46,167.82,35.51,170,35.51Z"/><path class="cls-3" d="M133,197.08a2.17,2.17,0,0,0,1.3-2.15q-.09-7.22,0-14.43c0-1.36-.58-1.67-1.8-1.66-4.65,0-9.29,0-13.94,0-1.59,0-2.22.58-2.2,2.18q.08,6.72,0,13.44a3.23,3.23,0,0,0,1.17,2.59c-1.6,1-2-.13-2-1.28-.07-5.24,0-10.49,0-15.73,0-2,1.62-1.92,2.85-1.95,3.74-.1,7.49,0,11.24,0,3.44,0,3.44,0,3.44-3.56s0-7.16,0-10.74c0-3,.71-3.73,3.61-3.73,4.58,0,9.16.06,13.74,0,2,0,2.68.68,2.65,2.62-.09,4.25.11,8.5-.08,12.74-.1,2.29.7,2.83,2.84,2.74,4-.15,8-.07,12,0,.81,0,1.95-.46,2.2.95-5.46,0-10.92-.09-16.37-.16a4.38,4.38,0,0,0-1.85.63c-4.89,0-9.78.09-14.67,0-1.62,0-2.18.51-2.14,2.14q.13,6.09,0,12.19c0,1.6.47,2.17,2.11,2.15,4.89-.06,9.78,0,14.67,0,.66.1,1,.6,1.24,1.1,0,4.91,0,9.82,0,14.73,0,3.19-.64,3.93-3.85,4.08-2.33.11-4.66,0-7,0-1.58,0-3.17,0-4.75,0-3.08,0-4.37-1.35-4.39-4.39C133,206.74,133,201.91,133,197.08Zm10-18.31c2.33,0,4.66-.07,7,0,1.49.06,2.06-.42,2-2-.09-4.5-.07-9,0-13.48,0-1.55-.42-2.29-2.11-2.26-4.5.07-9,.06-13.49,0-1.44,0-2.12.4-2.1,2,.07,4.66.06,9.32,0,14,0,1.27.37,1.8,1.7,1.75C138.34,178.71,140.67,178.77,143,178.77Zm.23,35.76c2.33,0,4.65,0,7,0,1.28,0,1.77-.51,1.76-1.79q-.06-7.09,0-14.2c0-1.13-.4-1.66-1.59-1.66q-7.23,0-14.45,0c-1.18,0-1.61.47-1.6,1.63,0,4.73.05,9.46,0,14.2,0,1.45.61,1.86,1.95,1.83C138.58,214.48,140.91,214.53,143.23,214.53Z"/><path class="cls-2" d="M35.79,73.2c.49,3.56.2,7.14.19,10.7,0,7.48.28,15-.18,22.43-.53-.75-.26-1.6-.26-2.4q0-14.16,0-28.32C35.54,74.81,35.27,74,35.79,73.2Z"/><path class="cls-3" d="M169,197.06l1-.57c.35.19.45.51.18.75A.72.72,0,0,1,169,197.06Z"/><path class="cls-2" d="M144.1,35.86c.11-.27.2-.25.28,0l-.15.15Z"/><path class="cls-3" d="M170.18,180a2.24,2.24,0,0,1-.11-.34c0-.06.05-.12.08-.18C170.49,179.64,170.53,179.81,170.18,180Z"/><path class="cls-2" d="M277.47,536.15H57.77c-3.77,0-3.77,0-3.77-3.86V486.55C54,483,54,483,57.5,483H496.9c3.63,0,3.63,0,3.63,3.7v45.48c0,4,0,4-4.11,4Z"/><path class="cls-4" d="M473.93,166c-.26,8.9.47,19.65-.53,30.38-2.56,27.45-14.7,49.84-35.72,67.47a93,93,0,0,1-31.45,17.31,97.19,97.19,0,0,1-43.62,3.9c-25-3.45-45.54-14.9-61.91-33.91a94.58,94.58,0,0,1-20.35-39.72,106.6,106.6,0,0,1-3-26c.06-13.83.17-27.66,0-41.49-.13-9.12,3.85-15.3,12-19.2C297.19,121,305,117,312.85,113a4.42,4.42,0,0,1,5.15.4c13.7,9.24,28.84,13.87,45.38,14.6,25.46,1.13,50.9,2.72,76.35,4.07,10.23.55,20.46,1,30.7,1.46,3.38.17,3.5.31,3.5,3.66Zm-27.57-17a2.29,2.29,0,0,0-2.57-1.85.44.44,0,0,1-.4-.18,1,1,0,0,0-.6-1c-7.38-4-15.06-4.85-23-1.87-2.95,1.11-6,2.28-7.92,5.12l-.72.69c-1.77.1-2.27,1.47-2.81,2.81-.16.25-.32.5-.49.75-1.51.45-2,1.87-2.58,3-1.22,2.66-3.22,5.13-2.57,8.37l-.18,1.53c-1,.73-1,1.87-1,2.91-.08,2.24,0,4.49,0,6.73,0,2.8.5,3.34,3.33,3.36,4.41,0,8.82,0,13.22,0,.71,0,1.54.25,2-.66a.27.27,0,0,1,.23-.23c1-.48.66-1.42.68-2.19.05-1.83,0-3.66,0-5.49.14-3.82,1.5-6.91,5.25-8.56.58-.25,1.35-.22,1.71-.9l2.56,0c5.35,2,7.75,5.79,7,11.54-.15,1.14.07,2.32,0,3.47-.21,2.21,1,3,2.93,3,4.56,0,9.12,0,13.68,0,1,0,2.41-.15,2.55-1.13.37-2.6,1-5.3-.34-7.85l-.15-3.54c1.12-2.26-.21-4.2-1-6.09-1.24-3-2.13-6.34-5.15-8.28l-.05,0a4.74,4.74,0,0,0-3.48-3.43ZM340,178.88c2.41,0,4.83,0,7.24,0,1,0,1.65-.2,1.64-1.34-.08-6.12.58-12.3-2.11-18.15-4.45-9.65-11.95-15.32-22.42-16.25-10.95-1-19.47,3.74-25.42,13-4.21,6.53-4,13.89-3.89,21.22,0,1.43,1,1.52,2.07,1.52,4.74,0,9.49,0,14.23,0,1.48,0,1.87-.62,1.83-1.95-.07-2.17,0-4.33,0-6.5.1-5.46,3.61-9.14,8.73-9.17s8.62,3.38,8.84,9a43.72,43.72,0,0,1,0,5.49c-.22,2.36.55,3.37,3,3.15C335.8,178.74,337.9,178.89,340,178.88Zm24.67,71.53A76,76,0,0,0,386,248.18a71.76,71.76,0,0,0,30.19-16.63c1.4-1.29,1.28-2.18,0-3.43-2.89-2.74-5.66-5.61-8.48-8.42-2.56-2.56-2.52-2.5-5.23-.19A51.53,51.53,0,0,1,375,231.85c-8,1-15.95.54-23.93.64-1.67,0-2.4.43-2.36,2.24.1,4.49.11,9,0,13.48,0,1.83.69,2.26,2.35,2.22C355,250.35,359,250.41,364.65,250.41Z"/><path class="cls-3" d="M116.39,268.46q47.49,0,95-.06c2.47,0,3.29.5,3.25,3.14-.18,9.91-.13,19.83,0,29.74,0,2.11-.57,2.82-2.74,3-7.18.62-14.06,7.6-14.79,14.76a52.93,52.93,0,0,0-.22,5.49c0,21.83-.05,43.66,0,65.49,0,2.53-.71,3.27-3.24,3.25q-21.49-.16-43,0c-2.34,0-3.08-.68-3.29-3.06q-1.47-17.3-3.36-34.55a17.51,17.51,0,0,0-17.14-15.76c-7-.21-14,0-21,0-9.14,0-16.45,8-17.14,16-1,11.11-2.19,22.2-3.28,33.3-.4,4-.38,4-4.49,4H21.47c-3.35,0-3.36,0-3.36-3.26q0-59.24-.05-118.47c0-2.43.71-3.1,3.1-3.09Q68.79,268.52,116.39,268.46Z"/><path class="cls-5" d="M378.41,18.14c11.33.19,25.33-.37,39.32.25a83.69,83.69,0,0,1,43.18,14.38,87.48,87.48,0,0,1,34.73,44.34,85.61,85.61,0,0,1,3.77,43.77c-1.09,6.55-2.42,13.07-3.64,19.61-.06.32-.17.64-.25,1a1.78,1.78,0,0,1-2.12,1.6c-1.37-.14-1.52-.94-1.52-2.07,0-6,.2-12-.11-18-1-19.47-10.37-33.91-27-43.81-7.21-4.29-15.34-5.73-23.42-7.25-1-.19-1.54.2-1.75,1.23-1,4.8-2,9.59-3,14.39-.4,1.91.86,2.15,2.31,2.42,6,1.11,12.11,2.07,17.53,5.31a36,36,0,0,1,15.33,18.06c.87,2.19-.33,2.31-2.05,2.21q-23.58-1.35-47.15-2.63c-19-1-38.09-2-57.14-2.88-13.21-.6-25.57-3.72-36.71-11.13a66,66,0,0,1-24.16-28.46c-.83-1.86-1.59-2.1-3.36-1.34-4,1.72-8.17,3.22-12.24,4.86-1.4.56-2.22,1-1.31,3.06a83.84,83.84,0,0,0,12.18,19.6c1.24,1.49,1.16,2.21-.66,3.08-6.72,3.25-13.45,6.51-20.05,10-11.93,6.3-18.55,16.24-19.76,29.72-.06.66-.15,1.33-.15,2,0,1.17-.6,1.62-1.71,1.64s-1.59-.48-1.79-1.59c-1.71-9.82-4.28-19.5-5-29.49a86.47,86.47,0,0,1,1.47-21.6,83.75,83.75,0,0,1,11-29.17,88.33,88.33,0,0,1,77.08-43.09C352.09,18.18,363.92,18.14,378.41,18.14Z"/><path class="cls-2" d="M277.46,447.3h255.2c3.72,0,3.72,0,3.72,3.8s-.07,7.5,0,11.24c.06,1.9-.73,2.58-2.5,2.46-.58-.05-1.17,0-1.75,0H22.27c-4.13,0-4.13,0-4.13-4.09,0-3.75.06-7.5,0-11.24,0-1.63.52-2.33,2.15-2.17a19.06,19.06,0,0,0,2,0Z"/><path class="cls-5" d="M443.85,321.68a41.51,41.51,0,0,0-5,0c-1.95.24-2.71-.8-3.21-2.35a45.94,45.94,0,0,0-15-21.87c-1.66-1.35-1.36-2,.45-2.81,26-11.2,45.25-29.54,58.26-54.54a112.27,112.27,0,0,0,8.85-23.47,2.3,2.3,0,0,1,2.76-2.05,34.72,34.72,0,0,0,24.47-8.83c.68-.58,1.35-1.45,2.35-.62,4.72,3.9,10.35,6.74,14.05,11.84,8.51,11.73,4.76,27.83-8.28,34.06-3.89,1.85-5.1,3.91-5.09,8.18a35.51,35.51,0,0,1-28.41,35,38.74,38.74,0,0,1-10.7.66c-2.41-.17-3.41.89-4,3.07-2.58,9.33-7.8,16.59-16.72,20.89C454.54,320.88,450.52,321.68,443.85,321.68Z"/><path class="cls-4" d="M360.38,429A56.69,56.69,0,0,1,328,419.25c-17.92-11.87-35.66-24-53.72-35.65-7.44-4.8-7.58-18.77-.54-23.33,4-2.56,8.21-3.43,12.31-1.42q26.36,12.93,52.46,26.39c8.23,4.26,14.36,10.94,18.89,19,.94,1.67,1.74,2.27,3.7,1.14a110.54,110.54,0,0,1,11.1-5.56c2.27-1,2.49-2,1.32-4.07a72.6,72.6,0,0,0-20.86-23.11l-1.41-1c-.55-.41-1.06-.85-.7-1.65a1.37,1.37,0,0,1,1.66-.77c2.62.42,5.25.81,7.87,1.29,8.91,1.63,17.81,3.31,26.72,4.95,8.5,1.56,17,3.26,25.52,4.59,7.31,1.13,7.23.94,4.92,7.94a58.65,58.65,0,0,1-24.09,31.39A56.68,56.68,0,0,1,360.38,429Z"/><path class="cls-4" d="M214.67,362.24c0-12.41.05-24.82,0-37.22,0-2.33.59-3.19,3.06-3.17q23.87.15,47.72,0c2.24,0,3.1.61,3,3-.15,5.15-.09,10.32,0,15.48a3.37,3.37,0,0,1-2,3.35C253.88,351,248.23,364,251,378.23a31,31,0,0,0,13.85,20.68,18.31,18.31,0,0,1,1.83,1.3c.44.41,1.42.48,1.17,1.38s-1.17.77-1.89.77c-16.24,0-32.47,0-48.71,0-2.26,0-2.56-1.07-2.55-2.94C214.7,387.05,214.67,374.64,214.67,362.24Z"/><path class="cls-6" d="M420.18,346.48c0,4.83,0,9.66,0,14.48,0,1.55-.44,2.09-2,1.79-6.77-1.26-13.56-2.43-20.34-3.66-7.2-1.31-14.38-2.66-21.57-4-6.46-1.17-12.92-2.31-19.38-3.47-1.12-.2-2.26-.51-1.9-2,2.16-9.19,3-18.79,6.83-27.48,4.92-11.11,13.85-17.07,26.05-17.87,14.56-1,26.46,8.23,30.84,20.9a22.36,22.36,0,0,1,1.46,7.55c-.06,4.58,0,9.16,0,13.74Z"/><path class="cls-3" d="M116.19,428.9c-4.75,0-9.5-.07-14.24,0-1.83,0-2.29-.58-2.11-2.31.88-8.44,1.65-16.89,2.5-25.33.94-9.36,1.94-18.71,2.88-28.06.45-4.47.89-8.94,1.23-13.42.12-1.57,1-2,2.3-2,5.08,0,10.16,0,15.24,0,1.91,0,2.12,1.35,2.26,2.68.54,5.05,1,10.1,1.51,15.16,1,9.68,2,19.36,3,29,.75,7.45,1.44,14.91,2.26,22.35.19,1.81-.75,1.87-2,1.86C126,428.89,121.1,428.9,116.19,428.9Z"/><path class="cls-7" d="M341.83,319.4c1.54-.18,1.51.55,1.27,1.36-2.48,8.27-3.82,16.81-5.89,25.17-1.06,4.27-1.84,8.6-2.75,12.9-.7,3.31-.95,3.42-4,1.91l-.23-.1c-7.34-3.54-9-6.25-8.18-14.29,1.1-11.16,6.44-19.69,16.23-25.31A36.52,36.52,0,0,1,341.83,319.4Z"/><path class="cls-4" d="M259.28,178.41c.09,4.85-.24,10.51.43,16.14.2,1.61-.35,2.27-2.09,2-8.49-1.08-15.3-7.85-16-16a18.1,18.1,0,0,1,13-18.92c.63-.19,1.32-.17,2-.32,2.15-.48,2.76.43,2.71,2.52C259.2,168.46,259.28,173,259.28,178.41Z"/><path class="cls-4" d="M491.89,178.88c0-5.07.1-10.14-.05-15.21-.07-2.16.78-2.49,2.65-2.32,6.1.55,12.7,6.1,14.36,12.22,2.55,9.37-1.56,17.92-10.49,21.82-.07,0-.14.08-.22.11-5.57,2.35-6.45,1.74-6.35-4.15.07-4.15,0-8.31,0-12.47Z"/><path class="cls-8" d="M35.81,187.84a8.9,8.9,0,0,1-9,8.77,8.73,8.73,0,0,1-8.69-9,8.86,8.86,0,0,1,8.77-8.71A9.08,9.08,0,0,1,35.81,187.84Z"/><path class="cls-9" d="M187.61,116.56a8.5,8.5,0,0,1-8.8,8.52,8.83,8.83,0,1,1,.34-17.65A8.6,8.6,0,0,1,187.61,116.56Z"/><path class="cls-10" d="M36,54.47c5.07,0,10.13,0,15.2-.12,1.57,0,2,.61,2,2.06q-.09,6.36,0,12.71c0,1.46-.39,2.1-2,2.07C46.1,71.09,41,71.1,36,71.08Z"/><path class="cls-1" d="M71.75,71.4c-5.16,0-10.32-.05-15.48,0-1.62,0-2.21-.53-2.18-2.16.08-4.32.07-8.65,0-13,0-1.57.46-2.23,2.13-2.22q15.48.07,31,0c1.47,0,2.1.53,2.09,2-.06,4.42-.07,8.83,0,13.24,0,1.73-.8,2.08-2.3,2.06C81.9,71.37,76.83,71.4,71.75,71.4Z"/><path class="cls-10" d="M151.73,196c-4.89,0-9.78-.1-14.67,0-1.64,0-2.15-.55-2.11-2.15q.13-6.11,0-12.19c0-1.63.52-2.16,2.14-2.14,4.89.07,9.78,0,14.67,0A125.06,125.06,0,0,1,151.73,196Z"/><path class="cls-1" d="M170.18,36c2.25,0,4.49,0,6.73,0,1.22,0,1.82.26,1.8,1.64-.06,4.65-.05,9.31,0,14,0,1.41-.53,1.89-1.91,1.87q-6.61-.09-13.21,0c-1.58,0-2.26-.53-2.24-2.16q.09-6.72,0-13.45c0-1.41.47-1.91,1.87-1.85C165.53,36,167.86,36,170.18,36Z"/><path class="cls-10" d="M170,35.51c-2.16,0-4.33,0-6.49,0-1.27,0-1.79-.4-1.78-1.72,0-4.49.06-9,0-13.49,0-1.48.68-1.82,2-1.81q6.5.06,13,0c1.19,0,1.85.25,1.83,1.65-.06,4.58-.07,9.16,0,13.74,0,1.4-.6,1.66-1.8,1.63C174.48,35.47,172.23,35.51,170,35.51Z"/><path class="cls-1" d="M143,178.77c-2.33,0-4.66-.06-7,0-1.33.05-1.71-.48-1.7-1.75.06-4.66.07-9.32,0-14,0-1.57.66-2,2.1-2,4.5.06,9,.07,13.49,0,1.69,0,2.13.71,2.11,2.26-.06,4.49-.08,9,0,13.48,0,1.55-.54,2-2,2C147.66,178.7,145.33,178.77,143,178.77Z"/><path class="cls-1" d="M143.23,214.53c-2.32,0-4.65-.05-7,0-1.34,0-2-.38-1.95-1.83.06-4.74.05-9.47,0-14.2,0-1.16.42-1.64,1.6-1.63q7.23,0,14.45,0c1.19,0,1.6.53,1.59,1.66q0,7.11,0,14.2c0,1.28-.48,1.81-1.76,1.79C147.88,214.49,145.56,214.53,143.23,214.53Z"/><path class="cls-1" d="M340,178.89c-2.08,0-4.18-.15-6.24,0-2.48.22-3.25-.79-3-3.15a43.72,43.72,0,0,0,0-5.49c-.22-5.61-3.61-9-8.84-9s-8.63,3.71-8.73,9.17c0,2.17-.06,4.33,0,6.5,0,1.33-.35,2-1.83,1.95-4.74-.06-9.49,0-14.23,0-1.06,0-2-.09-2.07-1.52-.1-7.33-.32-14.69,3.89-21.22,5.95-9.25,14.47-14,25.42-13,10.47.93,18,6.6,22.42,16.25,2.69,5.85,2,12,2.11,18.15,0,1.14-.68,1.35-1.64,1.34C344.81,178.87,342.39,178.88,340,178.89Z"/><path class="cls-1" d="M402.57,166.46l.18-1.53a50.86,50.86,0,0,1,5.15-11.4c.17-.25.33-.5.49-.75A6.63,6.63,0,0,0,411.2,150l.72-.69c.49.11.73-.26,1.06-.5,6.67-4.77,13.92-6.71,22.09-4.89,2.95.65,5.55,2.06,8.32,3.12a.44.44,0,0,0,.4.18,4.39,4.39,0,0,0,2.57,1.85l0,.05a12.49,12.49,0,0,0,3.48,3.43l.05,0a38.36,38.36,0,0,1,6.15,14.37l.15,3.54c-.54,2-.21,4.12-.22,6.18,0,1.45-.44,2.1-2,2.08q-6.84-.11-13.69,0c-1.59,0-2-.73-1.95-2.14.05-2.24.08-4.48,0-6.72-.25-4.89-3.73-8.58-7.87-8.47l-2.56,0c-3.84-.07-7.46,3.57-7.65,7.9-.13,3.07,0,6.16,0,9.24a.27.27,0,0,0-.23.23c-4.89,0-9.78-.14-14.66,0-2,0-2.82-.5-2.72-2.63C402.76,172.91,402.6,169.69,402.57,166.46Z"/><path class="cls-1" d="M364.65,250.41c-5.66,0-9.65-.06-13.65,0-1.66,0-2.39-.39-2.35-2.22.12-4.49.11-9,0-13.48,0-1.81.69-2.22,2.36-2.24,8-.1,16,.38,23.93-.64a51.53,51.53,0,0,0,27.49-12.34c2.71-2.31,2.67-2.37,5.23.19,2.82,2.81,5.59,5.68,8.48,8.42,1.31,1.25,1.43,2.14,0,3.43A71.76,71.76,0,0,1,386,248.18,76,76,0,0,1,364.65,250.41Z"/><path class="cls-2" d="M430.47,161.41c4.14-.11,7.62,3.58,7.87,8.47.11,2.24.08,4.48,0,6.72,0,1.41.36,2.16,1.95,2.14q6.85-.11,13.69,0c1.56,0,2-.63,2-2.08,0-2.06-.32-4.14.22-6.18,1.38,2.55.71,5.25.34,7.85-.14,1-1.52,1.13-2.55,1.13-4.56,0-9.12,0-13.68,0-2,0-3.14-.83-2.93-3,.11-1.15-.11-2.33,0-3.47C438.22,167.2,435.82,163.43,430.47,161.41Z"/><path class="cls-2" d="M402.57,166.46c0,3.23.19,6.45.06,9.67-.1,2.13.72,2.66,2.72,2.63,4.88-.1,9.77,0,14.66,0-.42.91-1.25.66-2,.66-4.4,0-8.81,0-13.22,0-2.83,0-3.32-.56-3.33-3.36,0-2.24-.05-4.49,0-6.73C401.56,168.33,401.56,167.19,402.57,166.46Z"/><path class="cls-2" d="M443.39,147c-2.77-1.06-5.37-2.47-8.32-3.12-8.17-1.82-15.42.12-22.09,4.89-.33.24-.57.61-1.06.5,1.9-2.84,5-4,7.92-5.12,7.89-3,15.57-2.16,23,1.87A1,1,0,0,1,443.39,147Z"/><path class="cls-2" d="M420.24,178.57c0-3.08-.11-6.17,0-9.24.19-4.33,3.81-8,7.65-7.9-.36.68-1.13.65-1.71.9-3.75,1.65-5.11,4.74-5.25,8.56-.07,1.83,0,3.66,0,5.49C420.9,177.15,421.27,178.09,420.24,178.57Z"/><path class="cls-2" d="M456.08,166.94a38.36,38.36,0,0,0-6.15-14.37c3,1.94,3.91,5.26,5.15,8.28C455.87,162.74,457.2,164.68,456.08,166.94Z"/><path class="cls-2" d="M407.9,153.53a50.86,50.86,0,0,0-5.15,11.4c-.65-3.24,1.35-5.71,2.57-8.37C405.86,155.4,406.39,154,407.9,153.53Z"/><path class="cls-2" d="M449.88,152.52a12.49,12.49,0,0,1-3.48-3.43A4.74,4.74,0,0,1,449.88,152.52Z"/><path class="cls-2" d="M411.2,150a6.63,6.63,0,0,1-2.81,2.81C408.93,151.44,409.43,150.07,411.2,150Z"/><path class="cls-2" d="M446.36,149a4.39,4.39,0,0,1-2.57-1.85A2.29,2.29,0,0,1,446.36,149Z"/></g></g></svg>