<svg xmlns="http://www.w3.org/2000/svg" viewBox="0 0 488.19 526.49"><defs><style>.cls-1{fill:#2d456b;}.cls-2{fill:#89cbd6;}.cls-3{fill:#fad5b7;}.cls-4{fill:#63a1d7;}.cls-5{fill:#6d7486;}.cls-6{fill:#e51d31;}.cls-7{fill:#5e101f;}</style></defs><g id="Слой_2" data-name="Слой 2"><g id="Слой_1-2" data-name="Слой 1"><path class="cls-1" d="M481.57,470.64c5.5,1.62,6.61,3.11,6.61,8.91q0,19.23,0,38.46c0,6.11-2.36,8.48-8.39,8.48h-310c-5.62,0-8.08-2.42-8.08-8q0-89.91,0-179.82c0-18.06,7.22-32.5,21.55-43.34a47.93,47.93,0,0,1,28.66-10.09c21.47-.29,43-.12,64.44-.14,3.33,0,3.33,0,3.33-3.23,0-7.16-.05-14.32,0-21.48a4,4,0,0,0-2.13-3.82c-17.05-10.67-29.06-25.54-36.37-44.2a86.59,86.59,0,0,1-5.48-24.21,3.91,3.91,0,0,0-2.37-3.6c-10.13-5.4-15.36-14-15.38-25.44a22.56,22.56,0,0,1,6.05-15.68,3.59,3.59,0,0,0,1.12-3.58,6.78,6.78,0,0,1-.19-1.74c.15-15.73-.72-31.48.54-47.18,1.76-21.81,10.25-40.86,24.67-57.28a97.32,97.32,0,0,1,36.57-26.1A96.68,96.68,0,0,1,335.37.65c32.32,3.78,57.2,19.6,74.61,47,10.3,16.19,14.86,34.13,14.88,53.25,0,12,.13,24-.08,36a13.25,13.25,0,0,0,2.61,8.76c8.9,12.36,4,31.23-9.75,38.31-2.45,1.27-3.28,2.69-3.6,5.4-3.21,27.59-16,49.64-39,65.36-3.77,2.58-5.08,5.09-4.82,9.43.36,6.05.18,12.15,0,18.22-.05,2.18.57,2.84,2.8,2.83,20.14-.08,40.29.05,60.44-.08,14.42-.09,27.11,4.23,37.76,14.07A51.85,51.85,0,0,1,487,326.57a54.85,54.85,0,0,1,1.18,11.9q0,41.44,0,82.91c0,4.6-1.67,6.79-5.73,7.74-1.41-.4-2.95,0-4.3-.95-2.38-1.75-3.19-4.05-3.18-6.91q0-40.83,0-81.65a41.9,41.9,0,0,0-2.35-15.17,39.14,39.14,0,0,0-24.55-24c-6.18-2.2-12.57-2.13-19-2-4.6,0-4.21-.49-4.21,4.09q0,40.08,0,80.15c0,4,0,4,4,4,6.5,0,8.65,2.17,8.65,8.64q0,57.3,0,114.6c0,3.41.07,3.49,3.51,3.49,10.32,0,20.65-.06,31,0,2.28,0,3-.63,3-2.95-.11-10.15,0-20.3,0-30.46C475,474.2,476.25,472.42,481.57,470.64ZM218,387.24c1.57-.07,3.14-.23,4.7-.18,2.14.06,3-.88,3-3q0-41.58,0-83.15c0-.9.18-1.89-.87-2.4l-1.63-.2c-2.13,0-4.27.16-6.39.1a42.2,42.2,0,0,0-15.2,2A39.61,39.61,0,0,0,181,316.56c-4.69,7.14-6.3,15.23-6.3,23.68V508.79a22.94,22.94,0,0,0,.07,2.49,2.08,2.08,0,0,0,2.43,2.13c8.16-.1,16.31-.07,24.47-.09,3.08,0,6.17-.14,9.24,0,2.19.13,2.79-.86,2.71-2.77,0-.75,0-1.5,0-2.25q0-52.43,0-104.87c0-3.41-.07-6.82,0-10.23A6,6,0,0,1,218,387.24ZM325.9,257c1-.07,2.88-.23,4.78-.33a70.67,70.67,0,0,0,38.79-14.06c20.44-15.14,31.12-35.57,31.74-61.11.1-4.29,1.74-6.36,5.87-7.46a23.61,23.61,0,0,0,2.83-1c6.36-2.54,10.34-10.74,8.25-16.83-.54-1.59-1-2.19-2.76-1.07a18.4,18.4,0,0,1-14.09,2.63q-15.33-3.34-30.58-7c-10.09-2.4-20.08-5.18-30.38-6.64a111.67,111.67,0,0,0-35.52.66c-8,1.44-15.89,3.51-23.8,5.38-11.46,2.72-22.91,5.53-34.36,8.28a8.57,8.57,0,0,1-4.21,0,23.37,23.37,0,0,1-8-3.32c-1.43-1-2-.79-2.65.88-2.16,5.92,1.38,15.7,11,18,4,1,5.74,3.1,5.79,7.19a78.36,78.36,0,0,0,5.7,28.41C265.64,238,294.1,257,325.9,257Zm-.1,142.91q-48,0-95.92,0c-2,0-3.23.13-3.22,2.74q.1,54,0,107.9c0,2.26.79,2.81,2.91,2.79,9.65-.09,19.32-.14,29,0,2.68,0,3.14-.87,3.12-3.28-.09-16.73-.06-33.47,0-50.2,0-7.72,4.45-12.38,12.16-12.4q51.21-.09,102.42,0c6.82,0,12.1,4.77,12,12-.25,16.73-.08,33.47-.07,50.2,0,3.62,0,3.62,3.51,3.62h29.22c3.55,0,3.55,0,3.55-3.54V403.36c0-3.42,0-3.43-3.44-3.43Zm-1-13.34c18.89,0,37.79,0,56.69.05,2.53,0,3.23-.68,3.21-3.21-.11-17.9-.06-35.79-.06-53.69,0-9.65,0-19.31,0-29,0-1.8-.43-2.55-2.36-2.47-3.24.14-6.5.12-9.74,0-1.78-.07-2.35.6-2.26,2.31a50.42,50.42,0,0,1-1.17,13.88c-3.21,14-11.08,24.7-24,31-15.48,7.53-30.79,6.52-45.23-2.89a43,43,0,0,1-18.53-25.93,60.39,60.39,0,0,1-1.68-16.06c0-1.7-.49-2.39-2.27-2.32-2.91.11-5.83,0-8.74,0-3.57,0-3.57,0-3.57,3.45v81.4c0,3.38,0,3.38,3.52,3.38ZM238.05,123c0,4.91-.05,9.82,0,14.73.06,4.25,3.79,8.44,7,7.8,3.49-.68,6.92-1.68,10.38-2.52,6.68-1.61,13.35-3.24,20-4.82,5.65-1.33,11.35-2.48,17-3.9a137.94,137.94,0,0,1,25.53-4c16.37-1,32.23,2,48,5.91,12.15,3,24.34,5.83,36.54,8.64,5.49,1.26,9.33-1.83,9.38-7.52.08-9.74,0-19.47,0-29.21,0-1.84-.7-2.75-2.57-2.92-2.73-.26-5.44-.67-8.16-1L364.5,99.37c-9.72-1.27-19.43-2.62-29.21-3.12-17.09-.85-34,.9-50.92,3.23-14.56,2-29.14,3.81-43.71,5.65-1.83.23-2.65,1-2.63,2.88C238.08,113,238,118,238.05,123ZM357,286.85h0c0-6.66,0-13.32,0-20,0-1.84-.39-2.33-2.28-1.67a87,87,0,0,1-25.08,4.95,87.86,87.86,0,0,1-33.39-4.59c-2.7-1-3.18-.67-3.18,1.72q0,19.11,0,38.22a31.25,31.25,0,0,0,2.75,12.56c6.51,14.81,24.2,22.57,39.39,17.22A32.34,32.34,0,0,0,357,304.83C357.06,298.84,357,292.84,357,286.85ZM278.06,83.39c.77,1.27-1.41,4.11,2,3.69,3.05-.37,6.12-.6,9.14-1.12a220.35,220.35,0,0,1,26.23-2.69c18.07-.89,36,1,53.83,3.81,2.31.36,2.75-.16,2.51-2.57-.47-4.71-1.29-9.34-2.17-14a111.54,111.54,0,0,0-7.94-25.3c-4.3-9.54-9.72-18.32-18-25-9.8-7.85-21.16-9.9-32.57-3.29C302.76,21.75,297,29,292.3,37.16a103.38,103.38,0,0,0-9.9,24.31A191.3,191.3,0,0,0,278.06,83.39ZM325,483.86c-15.8,0-31.61.05-47.42-.05-2.36,0-3,.76-2.94,3q.15,11.85,0,23.7c0,2.13.55,2.9,2.8,2.9q47.55-.1,95.09,0c2.18,0,2.63-.78,2.61-2.75-.09-8-.11-16,0-24,0-2.33-.71-2.91-3-2.9C356.43,483.9,340.71,483.86,325,483.86ZM285.35,23.23c-7,2.69-12.85,7.16-18.35,12.05a84,84,0,0,0-24.55,37.41,86.28,86.28,0,0,0-3.82,17c-.27,2.41.72,2.81,2.85,2.53,6.91-.92,13.83-1.7,20.75-2.56,1.53-.18,2.72-.81,2.79-2.6a128.79,128.79,0,0,1,4.44-27.44,124.26,124.26,0,0,1,6.25-18.31A146.14,146.14,0,0,1,285.35,23.23Zm124.08,69c1.77.06,2-.14,1.73-2.34a85.19,85.19,0,0,0-8.52-28.65C395,45.77,383.6,34,369,25.13c-1.13-.69-2.81-2.33-3.63-1.41-1,1.07.78,2.54,1.54,3.73A109.6,109.6,0,0,1,379,54.34a138,138,0,0,1,5.89,32.23c.14,2.3,1.21,3.1,3.28,3.09a43.47,43.47,0,0,1,6.42.79C399.46,91.11,404.33,91.62,409.43,92.21ZM252.08,342.49c0-13.9,0-27.8,0-41.7,0-2.07-.61-2.81-2.7-2.69a70.62,70.62,0,0,1-8.23,0c-2.36-.15-3.17.6-3.16,3.06.11,14.23.05,28.47.05,42.7,0,13.4,0,26.8,0,40.2,0,2.16.7,3,2.89,2.9a60.86,60.86,0,0,1,8,0c2.62.22,3.22-.84,3.2-3.28C252,370,252.08,356.22,252.08,342.49Zm145.8-.18v10c0,10.65,0,21.31,0,32,0,2.05.6,2.82,2.7,2.71,2.83-.17,5.66-.1,8.49,0,2,.05,2.93-.65,2.92-2.73q0-41.83,0-83.66c0-1.94-.84-2.46-2.56-2.43-2.91.05-5.83.15-8.73,0-2.17-.13-2.86.52-2.85,2.77C397.93,314.67,397.88,328.49,397.88,342.31ZM325.07,471H368c7.13,0,7.13,0,7.11-7.18,0-3.24,0-3.25-3.33-3.25H277.91c-.5,0-1,0-1.5,0-1.27,0-1.81.55-1.78,1.81a45.52,45.52,0,0,1,0,5.48c-.28,2.62.82,3.21,3.28,3.19C293.6,470.9,309.34,471,325.07,471Z"/><path class="cls-1" d="M101.49,107.2c26.81,0,53.62.17,80.43-.1a20.48,20.48,0,0,1,20.2,15.23c2.18,8.4-3.14,18.93-11.54,22.26A17.39,17.39,0,0,1,184,146c-2.27,0-2.79,1-2.78,3.06a94.4,94.4,0,0,1-2,21.81A79.33,79.33,0,0,1,131.55,227c-1.68.67-2,1.93-2,3.59.06,8.49,0,17,0,25.48,0,5.57-2.12,7.81-7.73,8.15-1.37.08-2,.52-1.9,1.92.06.83,0,1.66,0,2.49q0,69.06,0,138.12c0,2.05.25,3.57,2.27,4.74s2.54,3.3,2.53,5.63c0,10,0,20,0,30q0,27.73,0,55.45c0,10.85-5.28,18.23-15.16,22.38-11.56,4.87-26.33-2.2-30.13-14.18a29.39,29.39,0,0,1-1.27-9.08c0-27.73,0-55.45,0-83.17,0-3.37.59-6.31,3.9-8a1.74,1.74,0,0,0,1-1.85c0-.49,0-1,0-1.49V268.07c0-3.57,0-3.57-3.46-3.85-3.79-.31-6.2-3.12-6.28-7.64-.1-5.74,0-11.48,0-17.23,0-3.08-.07-6.16,0-9.24a3,3,0,0,0-2.14-3.2c-18.87-7.74-32.66-21-41.61-39.19-5.59-11.37-7.85-23.56-7.87-36.2,0-1-.05-2,0-3,.12-1.8-.62-2.48-2.47-2.53-7.63-.22-13.27-3.8-16.88-10.5-6.68-12.39,2.5-28.19,16.58-28.25,27.56-.13,55.12,0,82.68,0Zm51.42,87.92c.88-.09,1.35-.5,1.18-1.45l4.38-6.54c.89-.18,1.35-.63,1-1.6a2.85,2.85,0,0,1,1-1.9,1.69,1.69,0,0,0,1-2c.49-1.32,1-2.64,1.46-4,.75-.23,1.52-.46.77-1.47l.23-1a1.52,1.52,0,0,0,.91-2.14l.21-1.36a2,2,0,0,0,.88-2.56l.13-.93c.55-.29.64-.61.08-1l.15-1c1.26-.92,1.27-2.12.81-3.44.09-1.52.17-3,.26-4.56,1.21-.33.73-1.35.76-2.08.07-2.41-.05-4.83.07-7.23s-1-3.18-3.29-3.18c-42.5.06-85-.17-127.5.51h-.25c-1.85-.19-2.45.68-2.47,2.49-.06,9.15.88,18.11,4,26.84a65.41,65.41,0,0,0,14.69,23.93,66.51,66.51,0,0,0,28,17.36,6.43,6.43,0,0,1,4.83,6.66c0,8.32,0,16.64,0,24.95,0,2.07.67,2.77,2.74,2.75,7.32-.09,14.64,0,22,0a14.84,14.84,0,0,0,2-.26l3-.34c1.46-.23.87-1.4.88-2.15,0-5-.1-10,.06-15s-1-10,1.27-14.84l.67-.56c.88.23,1.28-.24,1.49-1l.84-.19c.94.48,1.45.09,1.67-.85l2-.46c.58.22.93.05,1-.59l1.52-.4c.6.21.94,0,1-.64l1.44-.41c.66.24,1,.05,1-.68l1-.33c1.45-.23,2.86-.52,3.56-2.05l4-2.42c1,.25,1.38-.24,1.54-1.11A78.78,78.78,0,0,0,152.91,195.12ZM101.6,120.21H58.66q-19.59,0-39.19.07a6.23,6.23,0,0,0-6.09,5.92c-.08,4.54,2.36,6.85,7.44,6.9,6.82.05,13.65,0,20.47,0q70.65,0,141.29,0c4.2,0,7-2.67,7-6.45,0-3.93-2.79-6.49-7.14-6.49Zm9.68,344.93c0-13.06,0-26.13,0-39.19,0-1.89-.42-2.66-2.49-2.6-4.9.15-9.82.14-14.72,0-2.18-.06-2.89.67-2.88,2.86.06,24.3,0,48.59.13,72.89,0,3.1-.29,6.42,1.63,9.38a10.33,10.33,0,0,0,11.11,4.19c3-.76,7.32-5.09,7.26-9.1C111.14,490.77,111.27,478,111.28,465.14ZM96.15,337v66.18c0,6.87,0,6.87,6.95,6.86,3.65,0,3.65,0,3.65-3.67V271.25c0-7.12,0-7.12-7.08-7.09-3.51,0-3.52,0-3.52,3.66Z"/><path class="cls-2" d="M481.57,470.64c-5.32,1.78-6.58,3.56-6.58,9.32,0,10.16-.07,20.31,0,30.46,0,2.32-.74,3-3,2.95-10.32-.11-20.65,0-31,0-3.44,0-3.51-.08-3.51-3.49q0-57.3,0-114.6c0-6.47-2.15-8.62-8.65-8.64-4,0-4,0-4-4q0-40.08,0-80.15c0-4.58-.39-4,4.21-4.09,6.41-.08,12.8-.15,19,2a39.14,39.14,0,0,1,24.55,24A41.9,41.9,0,0,1,475,339.61q0,40.83,0,81.65c0,2.86.8,5.16,3.18,6.91,1.35,1,2.89.55,4.3.95a7.91,7.91,0,0,0-1,4.23C481.53,445.78,481.54,458.21,481.57,470.64Z"/><path class="cls-3" d="M325.9,257c-31.8,0-60.26-19-71.57-47.33a78.36,78.36,0,0,1-5.7-28.41c0-4.09-1.76-6.21-5.79-7.19-9.65-2.34-13.19-12.12-11-18,.61-1.67,1.22-1.91,2.65-.88a23.37,23.37,0,0,0,8,3.32,8.57,8.57,0,0,0,4.21,0c11.45-2.75,22.9-5.56,34.36-8.28,7.91-1.87,15.8-3.94,23.8-5.38a111.67,111.67,0,0,1,35.52-.66c10.3,1.46,20.29,4.24,30.38,6.64s20.36,4.75,30.58,7a18.4,18.4,0,0,0,14.09-2.63c1.77-1.12,2.22-.52,2.76,1.07,2.09,6.09-1.89,14.29-8.25,16.83a23.61,23.61,0,0,1-2.83,1c-4.13,1.1-5.77,3.17-5.87,7.46-.62,25.54-11.3,46-31.74,61.11a70.67,70.67,0,0,1-38.79,14.06C328.78,256.79,326.87,257,325.9,257Z"/><path class="cls-4" d="M325.8,399.93H421c3.44,0,3.44,0,3.44,3.43v106.4c0,3.54,0,3.54-3.55,3.54H391.64c-3.51,0-3.51,0-3.51-3.62,0-16.73-.18-33.47.07-50.2.11-7.25-5.17-12-12-12q-51.21,0-102.42,0c-7.71,0-12.15,4.68-12.16,12.4,0,16.73-.05,33.47,0,50.2,0,2.41-.44,3.33-3.12,3.28-9.65-.17-19.32-.12-29,0-2.12,0-2.92-.53-2.91-2.79q.09-54,0-107.9c0-2.61,1.22-2.74,3.22-2.74Q277.85,400,325.8,399.93Z"/><path class="cls-2" d="M324.83,386.59H268.64c-3.52,0-3.52,0-3.52-3.38V301.8c0-3.45,0-3.45,3.57-3.45,2.91,0,5.83.08,8.74,0,1.78-.07,2.29.62,2.27,2.32a60.39,60.39,0,0,0,1.68,16.06,43,43,0,0,0,18.53,25.93c14.44,9.41,29.75,10.42,45.23,2.89,13-6.31,20.83-17,24-31a50.42,50.42,0,0,0,1.17-13.88c-.09-1.71.48-2.38,2.26-2.31,3.24.11,6.5.13,9.74,0,1.93-.08,2.37.67,2.36,2.47-.08,9.65,0,19.31,0,29,0,17.9-.05,35.79.06,53.69,0,2.53-.68,3.23-3.21,3.21C362.62,386.54,343.72,386.59,324.83,386.59Z"/><path class="cls-4" d="M238.05,123c0-5,0-10,0-15,0-1.87.8-2.65,2.63-2.88,14.57-1.84,29.15-3.64,43.71-5.65,16.9-2.33,33.83-4.08,50.92-3.23,9.78.5,19.49,1.85,29.21,3.12l36.77,4.75c2.72.36,5.43.77,8.16,1,1.87.17,2.58,1.08,2.57,2.92,0,9.74,0,19.47,0,29.21,0,5.69-3.89,8.78-9.38,7.52-12.2-2.81-24.39-5.63-36.54-8.64-15.78-3.91-31.64-6.89-48-5.91a137.94,137.94,0,0,0-25.53,4c-5.62,1.42-11.32,2.57-17,3.9-6.69,1.58-13.36,3.21-20,4.82-3.46.84-6.89,1.84-10.38,2.52-3.25.64-7-3.55-7-7.8C238,132.81,238.05,127.9,238.05,123Z"/><path class="cls-5" d="M201.65,513.32c-8.16,0-16.31,0-24.47.09a2.08,2.08,0,0,1-2.43-2.13,22.94,22.94,0,0,1-.07-2.49V340.24c0-8.45,1.61-16.54,6.3-23.68a39.61,39.61,0,0,1,20.57-16.12,42.2,42.2,0,0,1,15.2-2c2.12.06,4.26-.06,6.39-.1a4.42,4.42,0,0,1-.7.67c-8.19,4.8-13.8,11.95-17.64,20.39A47,47,0,0,0,201.05,339q0,84.71,0,169.41A16.25,16.25,0,0,0,201.65,513.32ZM186.17,408.17q0,19.21,0,38.44a6.34,6.34,0,0,0,6.31,6.28c4.06,0,6.62-2.81,6.62-7.37q0-31.22,0-62.41c0-4.16.06-8.32,0-12.48a6.34,6.34,0,0,0-6.83-6.62c-3.5,0-6.09,2.87-6.09,6.72Q186.16,389.45,186.17,408.17Zm0-65.12a24.35,24.35,0,0,1,0,3.56c-.54,3.42,2.62,6.56,6.44,6.75,3.23.16,6.42-3.09,6.52-6.58.07-2.32.06-4.66,0-7a6.57,6.57,0,0,0-4.7-6.09,6.76,6.76,0,0,0-7.06,2.47C185.56,338.39,186.39,341,186.17,343.05Z"/><path class="cls-3" d="M357,286.85c0,6,.06,12,0,18a32.34,32.34,0,0,1-21.71,30.45c-15.19,5.35-32.88-2.41-39.39-17.22a31.25,31.25,0,0,1-2.75-12.56q-.08-19.11,0-38.22c0-2.39.48-2.68,3.18-1.72a87.86,87.86,0,0,0,33.39,4.59,87,87,0,0,0,25.08-4.95c1.89-.66,2.3-.17,2.28,1.67-.07,6.66,0,13.32,0,20Z"/><path class="cls-2" d="M201.65,513.32a16.25,16.25,0,0,1-.6-4.91q0-84.71,0-169.41a47,47,0,0,1,3.75-19.62c3.84-8.44,9.45-15.59,17.64-20.39a4.42,4.42,0,0,0,.7-.67l1.62.2c0,8.3-.07,16.61-.08,24.92,0,19.86,0,39.72,0,59.58,0,2.36-.67,3.39-3.11,3.11-1.31-.14-2.69-.15-3.63,1.11a6,6,0,0,0-4.34,6c-.11,3.41,0,6.82,0,10.23q0,52.44,0,104.87c0,.75,0,1.5,0,2.25.08,1.91-.52,2.9-2.71,2.77C207.82,513.18,204.73,513.32,201.65,513.32Z"/><path class="cls-4" d="M278.06,83.39a191.3,191.3,0,0,1,4.34-21.92,103.38,103.38,0,0,1,9.9-24.31C297,29,302.76,21.75,311.06,17c11.41-6.61,22.77-4.56,32.57,3.29,8.31,6.66,13.73,15.44,18,25a111.54,111.54,0,0,1,7.94,25.3c.88,4.65,1.7,9.28,2.17,14,.24,2.41-.2,2.93-2.51,2.57-17.84-2.78-35.76-4.7-53.83-3.81A220.35,220.35,0,0,0,289.2,86c-3,.52-6.09.75-9.14,1.12C276.65,87.5,278.83,84.66,278.06,83.39Zm47.11-52.23A23.93,23.93,0,0,0,300.6,55.42c0,14,10.8,24,23.93,24.28C338.29,80,349.17,69,349.2,55.18A23.86,23.86,0,0,0,325.17,31.16Z"/><path class="cls-4" d="M325,483.86c15.73,0,31.45,0,47.17-.05,2.27,0,3,.57,3,2.9-.12,8-.1,16,0,24,0,2-.43,2.76-2.61,2.75q-47.55-.1-95.09,0c-2.25,0-2.83-.77-2.8-2.9q.15-11.85,0-23.7c0-2.25.58-3,2.94-3C293.37,483.91,309.18,483.86,325,483.86Z"/><path class="cls-4" d="M285.35,23.23a146.14,146.14,0,0,0-9.64,18,124.26,124.26,0,0,0-6.25,18.31A128.79,128.79,0,0,0,265,87c-.07,1.79-1.26,2.42-2.79,2.6-6.92.86-13.84,1.64-20.75,2.56-2.13.28-3.12-.12-2.85-2.53a86.28,86.28,0,0,1,3.82-17A84,84,0,0,1,267,35.28C272.5,30.39,278.33,25.92,285.35,23.23Z"/><path class="cls-4" d="M409.43,92.21c-5.1-.59-10-1.1-14.82-1.76a43.47,43.47,0,0,0-6.42-.79c-2.07,0-3.14-.79-3.28-3.09A138,138,0,0,0,379,54.34a109.6,109.6,0,0,0-12.08-26.89c-.76-1.19-2.5-2.66-1.54-3.73.82-.92,2.5.72,3.63,1.41C383.6,34,395,45.77,402.64,61.22a85.19,85.19,0,0,1,8.52,28.65C411.4,92.07,411.2,92.27,409.43,92.21Z"/><path class="cls-4" d="M252.08,342.49c0,13.73-.05,27.46,0,41.2,0,2.44-.58,3.5-3.2,3.28a60.86,60.86,0,0,0-8,0c-2.19.11-2.9-.74-2.89-2.9.07-13.4,0-26.8,0-40.2,0-14.23.06-28.47-.05-42.7,0-2.46.8-3.21,3.16-3.06a70.62,70.62,0,0,0,8.23,0c2.09-.12,2.71.62,2.7,2.69C252.05,314.69,252.08,328.59,252.08,342.49Z"/><path class="cls-4" d="M397.88,342.31c0-13.82.05-27.64-.05-41.45,0-2.25.68-2.9,2.85-2.77,2.9.18,5.82.08,8.73,0,1.72,0,2.57.49,2.56,2.43q-.06,41.82,0,83.66c0,2.08-1,2.78-2.92,2.73-2.83-.07-5.66-.14-8.49,0-2.1.11-2.72-.66-2.7-2.71.07-10.65,0-21.31,0-32Z"/><path class="cls-4" d="M325.07,471c-15.73,0-31.47-.05-47.19.05-2.46,0-3.56-.57-3.28-3.19a45.52,45.52,0,0,0,0-5.48c0-1.26.51-1.86,1.78-1.81.5,0,1,0,1.5,0h93.88c3.33,0,3.33,0,3.33,3.25,0,7.18,0,7.18-7.11,7.18Z"/><path class="cls-5" d="M218,387.24c.94-1.26,2.32-1.25,3.63-1.11,2.44.28,3.12-.75,3.11-3.11-.07-19.86-.05-39.72,0-59.58,0-8.31.06-16.62.08-24.92,1.06.51.88,1.5.88,2.4q0,41.57,0,83.15c0,2.11-.85,3.05-3,3C221.12,387,219.55,387.17,218,387.24Z"/><path class="cls-6" d="M166.13,168.15c0,.31-.09.62-.13.93a1.75,1.75,0,0,0-.88,2.56c-.07.45-.14.9-.2,1.36-1,.41-1.48,1.05-.92,2.14l-.23,1c-.7.26-1.26.59-.77,1.47-.48,1.32-1,2.64-1.46,4-1.1.29-1.33,1-1,2a2.85,2.85,0,0,0-1,1.9c-.78.26-1.43.59-1,1.6l-4.38,6.54c-.9.08-1.46.42-1.18,1.45a78.78,78.78,0,0,1-12.21,11.73c-1-.3-1.38.24-1.54,1.11l-4,2.42c-1.41.29-2.87.5-3.56,2.05l-1,.33c-.67-.28-1,0-1,.68l-1.44.41c-.68-.33-1,0-1,.64l-1.52.4c-.66-.36-1-.13-1,.59l-2,.46c-1-.53-1.33.15-1.67.85l-.83.19c-1.11-.58-1.36.12-1.5,1l-.67.56c-1,.15-1.25.94-1.63,1.69-1,2-.81,4-.78,6.11.12,8-.27,16.1.2,24.14l-3,.34c0-8.48-.09-17-.1-25.46,0-1.44-.2-2.44-1.87-3A70.66,70.66,0,0,1,89,210.46a73.29,73.29,0,0,1-19.35-23.4c-6.21-11.72-8.51-24.28-8.43-37.43,0-2.24.83-2.87,2.91-2.87q50.31,0,100.62,0c1.85,0,2.44.61,2.45,2.46,0,3-.45,6,.22,8.92-.09,1.52-.17,3-.26,4.56-.72,1-1.32,2.11-.81,3.44l-.15,1C165.68,167.46,165.66,167.79,166.13,168.15Z"/><path class="cls-7" d="M167.43,158.13c-.67-2.95-.2-5.95-.22-8.92,0-1.85-.6-2.46-2.45-2.46q-50.31.06-100.62,0c-2.08,0-2.9.63-2.91,2.87-.08,13.15,2.22,25.71,8.43,37.43A73.29,73.29,0,0,0,89,210.46a70.66,70.66,0,0,0,21.91,11.91c1.67.55,1.87,1.55,1.87,3,0,8.49.06,17,.1,25.46a14.84,14.84,0,0,1-2,.26c-7.32,0-14.64,0-22,0-2.07,0-2.77-.68-2.74-2.75.08-8.31,0-16.63,0-24.95a6.43,6.43,0,0,0-4.83-6.66,66.51,66.51,0,0,1-28-17.36A65.41,65.41,0,0,1,38.7,175.48c-3.07-8.73-4-17.69-4-26.84,0-1.81.62-2.68,2.47-2.49h.25c42.5-.68,85-.45,127.5-.51,2.31,0,3.41.75,3.29,3.18s0,4.82-.07,7.23C168.16,156.78,168.64,157.8,167.43,158.13Z"/><path class="cls-5" d="M101.6,120.21h80.88c4.35,0,7.15,2.56,7.14,6.49,0,3.78-2.84,6.45-7,6.45q-70.64,0-141.29,0c-6.82,0-13.65,0-20.47,0-5.08,0-7.52-2.36-7.44-6.9a6.23,6.23,0,0,1,6.09-5.92q19.61-.06,39.19-.07Z"/><path class="cls-5" d="M111.27,465.14c0,12.82-.13,25.63.08,38.44.06,4-4.25,8.34-7.26,9.1A10.33,10.33,0,0,1,93,508.49c-1.92-3-1.61-6.28-1.63-9.38-.17-24.3-.07-48.59-.13-72.89,0-2.19.7-2.92,2.88-2.86,4.9.13,9.82.14,14.72,0,2.07-.06,2.5.71,2.49,2.6C111.24,439,111.28,452.08,111.27,465.14Z"/><path class="cls-4" d="M96.15,337V267.82c0-3.64,0-3.64,3.52-3.66,7.08,0,7.08,0,7.08,7.09V406.37c0,3.67,0,3.67-3.65,3.67-6.95,0-6.95,0-6.95-6.86Z"/><path class="cls-5" d="M115.84,250.48c-.47-8-.08-16.09-.2-24.14,0-2.07-.2-4.15.78-6.11.38-.75.66-1.54,1.63-1.69-2.23,4.79-1.11,9.88-1.27,14.84s0,10-.06,15C116.71,249.08,117.3,250.25,115.84,250.48Z"/><path class="cls-5" d="M131.64,212.43c.69-1.55,2.15-1.76,3.56-2.05C134.5,211.91,133.09,212.2,131.64,212.43Z"/><path class="cls-5" d="M166.36,166.13c-.51-1.33.09-2.4.81-3.44C167.63,164,167.62,165.21,166.36,166.13Z"/><path class="cls-5" d="M165.12,171.64a1.75,1.75,0,0,1,.88-2.56A2,2,0,0,1,165.12,171.64Z"/><path class="cls-5" d="M164,175.14c-.56-1.09-.08-1.73.92-2.14A1.53,1.53,0,0,1,164,175.14Z"/><path class="cls-5" d="M160.52,183.63c-.31-1-.08-1.73,1-2A1.69,1.69,0,0,1,160.52,183.63Z"/><path class="cls-5" d="M163,177.65c-.49-.88.07-1.21.77-1.47C164.52,177.19,163.75,177.42,163,177.65Z"/><path class="cls-5" d="M158.47,187.13c-.41-1,.24-1.34,1-1.6C159.82,186.5,159.36,187,158.47,187.13Z"/><path class="cls-5" d="M152.91,195.12c-.28-1,.28-1.37,1.18-1.45C154.26,194.62,153.79,195,152.91,195.12Z"/><path class="cls-5" d="M139.16,208c.16-.87.54-1.41,1.54-1.11C140.54,207.72,140.11,208.21,139.16,208Z"/><path class="cls-5" d="M121.05,216.79c.34-.7.7-1.38,1.67-.85C122.5,216.88,122,217.27,121.05,216.79Z"/><path class="cls-5" d="M118.72,218c.14-.88.39-1.58,1.5-1C120,217.74,119.6,218.21,118.72,218Z"/><path class="cls-5" d="M166.13,168.15c-.47-.36-.45-.69.08-1C166.77,167.54,166.68,167.86,166.13,168.15Z"/><path class="cls-5" d="M129.65,213.44c.07-.64.36-1,1-.68C130.68,213.49,130.31,213.68,129.65,213.44Z"/><path class="cls-5" d="M127.23,214.49c0-.68.3-1,1-.64C128.17,214.51,127.83,214.7,127.23,214.49Z"/><path class="cls-5" d="M124.71,215.48c0-.72.34-.95,1-.59C125.64,215.53,125.29,215.7,124.71,215.48Z"/><path class="cls-1" d="M186.17,408.17q0-18.72,0-37.44c0-3.85,2.59-6.68,6.09-6.72a6.34,6.34,0,0,1,6.83,6.62c.09,4.16,0,8.32,0,12.48q0,31.2,0,62.41c0,4.56-2.56,7.36-6.62,7.37a6.34,6.34,0,0,1-6.31-6.28Q186.15,427.4,186.17,408.17Z"/><path class="cls-1" d="M186.17,343.05c.22-2.1-.61-4.66,1.17-6.88a6.76,6.76,0,0,1,7.06-2.47,6.57,6.57,0,0,1,4.7,6.09c.06,2.33.07,4.67,0,7-.1,3.49-3.29,6.74-6.52,6.58-3.82-.19-7-3.33-6.44-6.75A24.35,24.35,0,0,0,186.17,343.05Z"/><path class="cls-1" d="M325.17,31.16a23.86,23.86,0,0,1,24,24C349.17,69,338.29,80,324.53,79.7c-13.13-.3-23.88-10.33-23.93-24.28A23.93,23.93,0,0,1,325.17,31.16Zm-.44,35.46a11.5,11.5,0,0,0,11.59-11C336.59,49.4,331,43.88,324.79,44A11.67,11.67,0,0,0,313.61,55.2,11.4,11.4,0,0,0,324.73,66.62Z"/><path class="cls-2" d="M324.73,66.62A11.4,11.4,0,0,1,313.61,55.2,11.67,11.67,0,0,1,324.79,44c6.21-.09,11.8,5.43,11.53,11.65A11.5,11.5,0,0,1,324.73,66.62Z"/></g></g></svg>