<?xml version="1.0" encoding="utf-8"?>
<!-- Generator: Adobe Illustrator 26.3.1, SVG Export Plug-In . SVG Version: 6.00 Build 0)  -->
<svg version="1.1" id="Слой_1" xmlns="http://www.w3.org/2000/svg" xmlns:xlink="http://www.w3.org/1999/xlink" x="0px" y="0px"
	 viewBox="0 0 500 500" style="enable-background:new 0 0 500 500;" xml:space="preserve">
<style type="text/css">
	.st0{fill:#1890FF;}
</style>
<g id="Слой_2_00000021836152053423755820000000875714313111539364_">
	<g id="Слой_1-2">
		<path class="st0" d="M267.3,0c51.3,0.8,110.6,24.5,159.2,73c48.8,48.8,73.6,108.3,73.6,177.4c-0.1,68.9-24.9,128.3-73.7,176.9
			s-108.1,73-177,72.8s-128-25.1-176.5-73.8S0.1,318.4,0,249.7C-0.2,112,112.2-0.3,267.3,0z M104.7,397.8c0.5,0,1-0.1,1.5-0.2
			c2.8-0.7,5.7-1.4,8.5-2.1c4.2-1.1,8.3-2.2,12.4-3.2c4.4-1.1,8.7-2.3,13-3.5s8.6-2.2,12.9-3.3c4.6-1.2,9.1-2.4,13.7-3.6
			s8.9-2.4,13.4-3.5c1.7-0.4,3.4-1.1,5.3-0.2c2.8,1.5,5.6,3,8.6,4.2c5.3,2.2,10.6,4.4,16.1,6.2c4.2,1.4,8.6,2.3,12.9,3.4
			c8,1.9,16.1,3.1,24.3,3.5c12.2,0.8,24.4-0.1,36.3-2.6c6.9-1.4,13.8-3.2,20.5-5.4c7-2.5,13.8-5.4,20.4-8.8
			c10-5.1,19.4-11.4,27.9-18.8c12.7-10.8,23.5-23.6,31.9-38.1c3.4-5.9,6.5-11.9,9.2-18.2c2.5-6.1,4.6-12.3,6.3-18.7
			c1.5-5.3,2.7-10.8,3.6-16.2c0.8-4.7,1-9.5,1.4-14.3c0.7-10.7,0.2-21.4-1.5-31.9c-1-7.7-2.9-15.2-5.5-22.5
			c-2.3-6.2-4.5-12.5-7.3-18.5c-5-10.6-11.3-20.6-18.8-29.7c-9.8-12-21.3-22.4-34.2-30.9c-9.3-6.2-19.2-11.2-29.7-15.1
			c-5.9-2.1-11.9-3.9-18-5.3c-6.6-1.6-13.3-2.8-20.1-3.5c-13-1.2-26.1-0.7-39,1.4c-8.5,1.4-16.8,3.5-24.8,6.4
			c-6.9,2.6-13.7,5.5-20.3,8.9c-10,5.2-19.4,11.6-27.9,19.1c-11.9,10.3-22.1,22.4-30.3,35.8c-5.5,8.8-9.9,18.3-13.2,28.2
			c-2.2,6.3-4,12.8-5.4,19.3c-1.4,7.4-2.3,14.9-2.8,22.4c-0.9,12.5,0.3,24.9,2.8,37.1c1.5,7.6,3.6,15.1,6.4,22.3
			c2.7,7.2,5.9,14.2,9.7,20.9c0.7,1,0.9,2.3,0.5,3.4c-1.2,4.2-2.2,8.4-3.4,12.6c-1,3.8-2.1,7.5-3.1,11.3c-1.2,4.2-2.3,8.4-3.5,12.5
			s-2.2,8.3-3.4,12.4s-2.3,8.2-3.4,12.4s-2.3,8.5-3.4,12.7C104.9,396.6,104.8,397.1,104.7,397.8z"/>
		<path class="st0" d="M256.4,370.3c-7.4,0.1-14.9-0.5-22.2-1.8c-7-1.1-13.9-2.9-20.5-5.3c-6.7-2.6-13.2-5.9-19.7-9
			c-1.9-0.9-3.6-2.2-5.4-3.1c-0.7-0.4-1.6-0.5-2.4-0.3c-4.3,1-8.5,2.2-12.7,3.3c-3.3,0.9-6.6,1.7-9.9,2.6c-4.2,1.1-8.4,2.2-12.6,3.4
			c-3,0.8-5.9,1.6-8.9,2.3c-1.4,0.3-1.8-0.1-1.4-1.5c1.4-5.2,2.9-10.5,4.4-15.7c1.1-4.1,2.2-8.3,3.3-12.4s2.3-8.2,3.5-12.4
			c0.6-2,0.8-3.8-0.5-5.9c-3.3-5.5-6.6-11.2-9.3-17c-2.1-4.6-4-9.4-5.4-14.3c-1.4-4.4-2.6-8.8-3.5-13.4c-1-5.4-1.7-10.8-2.1-16.2
			c-0.7-10.3-0.1-20.7,1.9-30.9c1.9-9.9,5-19.6,9.3-28.8c9.4-20.4,24.1-37.8,42.5-50.5c7.1-4.9,14.6-9.1,22.6-12.4
			c6.4-2.7,13-4.8,19.7-6.3c18.6-4.3,37.8-4.3,56.4,0c9.1,2.1,17.9,5.2,26.3,9.2c25.4,12.5,45.9,33.3,58.1,58.9
			c3,6.5,5.5,13.2,7.3,20.1c3.5,12.4,4.9,25.3,4.4,38.2c-0.4,8-1.5,16-3.4,23.8c-2.6,10.9-6.7,21.5-12.2,31.3
			c-7.3,13.2-17,24.9-28.5,34.7c-8.4,7.1-17.8,13.1-27.8,17.8c-6.5,3.1-13.2,5.6-20.2,7.4C277.5,369,267,370.4,256.4,370.3z
			 M293.3,317.7c11.5,0,16.6-1.8,24.9-7.2c3.6-2.3,7-4.9,9-8.7c2.9-5.3,3.9-11.1,4-17.2c0.1-2.3-1.2-4.4-3.4-5.3
			c-9.9-4.7-19.7-9.6-29.7-14.1c-4-1.8-6-1.7-9.1,2.4c-3.6,4.9-7.6,9.5-11.5,14.2c-1.3,1.7-3.5,2.4-5.5,1.6
			c-1.6-0.5-3.1-1.3-4.7-1.9c-8.2-3.4-15.8-7.8-22.8-13.3c-10.5-8.2-18.7-18.3-25.6-29.7c-1.8-3-1.6-4.4,0.6-7.2
			c0.2-0.3,0.4-0.5,0.6-0.8c2.9-3.9,5.9-7.8,8.7-11.8c1.6-1.9,1.9-4.6,0.8-6.8c-1.8-3.9-3.4-8-5-12c-2.4-5.8-4.7-11.6-7.1-17.3
			c-1-2.4-2.3-5.2-5.1-5.4c-4.4-0.3-8.7-0.3-13.1,0c-1.1,0.1-2.1,0.4-2.9,1.1c-2.4,1.9-4.6,3.9-6.7,6c-4.3,4.5-7.4,10.1-8.9,16.1
			c-1.9,7-2,14.4-0.4,21.6c1.6,7.5,4.6,14.6,8.7,21c4.1,6.4,8.5,12.6,13.1,18.5c10.6,13.9,23.3,26,37.7,35.9
			c7.3,5,15.2,9.1,23.4,12.2c3.7,1.4,7.5,2.7,11.3,4.1C281,316.3,287.6,318,293.3,317.7z"/>
	</g>
</g>
</svg>
